<svg version="1.0" xmlns="http://www.w3.org/2000/svg" viewBox="0 0 25.4 25.4" preserveAspectRatio="xMidYMid meet">
 <g fill="none" stroke="#ecc86c" stroke-width="0.5">
  <path d="M17.727 2.977C17.727 3.241 17.661 3.770 17.859 3.969C18.124 4.167 18.918 4.101 19.248 4.167C20.174 4.299 20.902 4.895 21.233 5.755C21.630 6.813 21.431 8.202 21.431 9.327L21.431 16.338C21.431 17.529 21.630 19.050 21.034 20.174C20.439 21.299 19.182 21.497 18.058 21.497M7.673 3.175L7.673 4.696M15.081 21.497L7.673 21.497C6.482 21.497 5.159 21.365 4.432 20.307C3.770 19.248 4.035 17.727 4.035 16.536L4.035 8.996C4.035 7.805 3.836 6.350 4.432 5.226C5.093 4.167 6.416 4.035 7.541 4.035M10.583 4.035L17.727 4.101L17.727 4.630M7.210 8.268L21.299 8.268M14.618 13.626C15.214 13.560 16.933 13.428 17.330 13.891C17.661 14.221 17.661 14.949 17.661 15.346C17.661 16.338 17.793 17.595 16.536 17.793C15.875 17.859 14.288 17.992 13.824 17.396C13.560 16.999 13.560 16.404 13.560 16.007C13.560 15.081 13.361 13.758 14.618 13.626"/>
 </g>
</svg>