<svg version="1.0" xmlns="http://www.w3.org/2000/svg" viewBox="0 0 25.4 25.4" preserveAspectRatio="xMidYMid meet">
 <g fill="none" stroke="#ecc86c" stroke-width="0.7">
  <path d="M2.910 9.128C2.910 7.805 2.778 6.019 3.969 5.159C5.027 4.366 6.747 4.630 8.004 4.630C11.179 4.564 14.288 4.564 17.462 4.630C18.719 4.630 20.638 4.299 21.630 5.292C22.490 6.152 22.490 7.408 22.490 8.533L22.490 15.147C22.490 16.140 22.423 17.330 21.696 18.058C20.439 19.248 18.058 18.852 16.470 18.852M8.996 11.708L9.062 11.708M12.700 11.708L12.766 11.708M16.404 11.708L16.470 11.708M2.910 12.832C2.910 14.486 2.447 17.264 4.035 18.322C4.630 18.785 5.424 18.785 6.152 18.918C6.416 18.918 6.813 18.852 7.011 19.116C7.342 19.711 7.210 21.034 7.210 21.696C7.210 22.093 7.144 22.622 7.673 22.688C8.401 22.754 8.996 22.225 9.525 21.828C10.848 20.902 12.105 19.844 13.428 18.918"/>
 </g>
</svg>