<?xml version="1.0" encoding="utf-8"?>
<!DOCTYPE svg PUBLIC "-//W3C//DTD SVG 1.0//EN" "http://www.w3.org/TR/2001/REC-SVG-20010904/DTD/svg10.dtd">
<svg version="1.0" xmlns="http://www.w3.org/2000/svg" width="25.4mm" height="25.4mm" viewBox="0 0 25.4 25.4" preserveAspectRatio="xMidYMid meet">
 <g fill="none" stroke="#ecc86c" stroke-width="0.661">
  <path d="M10.054 3.704C11.179 3.440 12.502 3.572 13.626 3.638C15.478 3.770 17.198 3.836 18.984 4.498C19.910 4.829 20.505 5.358 20.704 6.350C20.770 6.681 20.902 7.210 20.505 7.408C20.108 7.607 19.579 7.607 19.182 7.739C15.743 8.930 11.906 8.996 8.334 8.401C7.474 8.202 6.747 7.805 5.887 7.673C5.556 7.607 4.961 7.607 4.762 7.276C4.564 7.078 4.630 6.681 4.630 6.416C4.829 5.424 5.292 5.093 6.152 4.564M4.696 7.342C4.233 8.136 4.564 9.723 4.564 10.649C4.564 10.980 4.498 11.509 4.762 11.708C5.226 12.039 5.953 11.972 6.482 12.171C8.665 13.163 11.377 13.295 13.692 13.097C14.817 13.031 15.875 13.031 16.933 12.766M20.704 7.342C21.101 7.938 20.902 9.062 20.902 9.790L20.902 16.007M4.630 11.774C4.366 12.766 4.564 13.957 4.564 14.949C4.564 15.280 4.498 15.809 4.762 16.140C4.961 16.338 5.358 16.404 5.622 16.470C6.218 16.536 6.747 16.735 7.342 16.933C10.451 17.926 14.288 17.926 17.462 17.132M4.696 16.206C4.498 16.536 4.564 16.933 4.564 17.330C4.564 18.190 4.366 19.447 4.961 20.174C5.424 20.704 6.152 20.902 6.813 21.167C9.856 22.291 13.824 22.225 16.999 21.630C18.256 21.365 20.373 20.902 20.836 19.513"/>
 </g>
</svg>