<svg version="1.0" xmlns="http://www.w3.org/2000/svg" viewBox="0 0 135.5 135.5" preserveAspectRatio="xMidYMid meet">
 <g fill="none" stroke="#ecc86c" stroke-width="4">
  <path d="M13.573 114.697 c-2.064 -0.556 -3.440 -1.349 -5.054 -2.858 -1.667 -1.614 -2.566 -3.043 -3.254 -5.239 -0.476 -1.535 -0.503 -3.122 -0.503 -38.867 0 -35.745 0.026 -37.333 0.503 -38.867 0.688 -2.196 1.587 -3.625 3.254 -5.239 2.540 -2.381 5.027 -3.254 9.340 -3.254 l2.672 0 23.521 18.653 c12.965 10.239 23.601 18.627 23.680 18.627 0.079 0.026 10.716 -8.361 23.680 -18.627 l23.521 -18.653 2.672 0 c4.313 0 6.800 0.873 9.340 3.254 1.667 1.614 2.566 3.043 3.254 5.239 0.476 1.535 0.503 3.122 0.503 38.867 0 35.745 -0.026 37.333 -0.503 38.867 -0.688 2.196 -1.587 3.625 -3.254 5.239 -2.540 2.381 -5.027 3.254 -9.260 3.254 l-2.593 0 -0.053 -36.909 -0.079 -36.909 -23.495 18.124 c-12.912 9.975 -23.601 18.124 -23.733 18.124 -0.132 0 -10.821 -8.149 -23.733 -18.124 l-23.495 -18.124 -0.079 36.909 -0.053 36.909 -2.725 -0.026 c-1.482 0 -3.334 -0.185 -4.075 -0.370z"/>
 </g>
 <g fill="none" stroke="#ecc86c" stroke-width="3">
  <path d="M20.638 78.290 c0 -29.342 0.079 -36.751 0.344 -36.592 0.159 0.106 10.716 8.229 23.416 18.018 12.700 9.790 23.204 17.806 23.336 17.806 0.132 0 10.398 -7.832 22.807 -17.410 12.409 -9.551 23.019 -17.727 23.574 -18.150 l0.979 -0.741 0 36.936 0 36.936 -47.228 0 -47.228 0 0 -36.804z"/>
  <path d="M44.159 39.079 l-23.469 -18.574 23.521 -0.079 c12.938 -0.026 34.105 -0.026 47.043 0 l23.521 0.079 -23.389 18.521 c-12.859 10.186 -23.469 18.547 -23.574 18.574 -0.132 0.026 -10.769 -8.308 -23.654 -18.521z"/>
 </g>
</svg>