<?xml version="1.0" encoding="utf-8"?>
<!DOCTYPE svg PUBLIC "-//W3C//DTD SVG 1.0//EN" "http://www.w3.org/TR/2001/REC-SVG-20010904/DTD/svg10.dtd">
<svg version="1.0" xmlns="http://www.w3.org/2000/svg" width="25.4mm" height="25.4mm" viewBox="0 0 25.4 25.4" preserveAspectRatio="xMidYMid meet">
 <g fill="#ECC86C" fill-rule="evenodd">
  <path d="M4.723 22.569 C2.990 21.828 2.156 19.791 2.924 18.164 C3.321 17.317 7.938 12.700 8.374 12.700 C8.744 12.687 9.247 13.203 9.260 13.586 C9.260 13.785 8.480 14.645 6.919 16.206 C5.596 17.555 4.511 18.746 4.405 19.010 C4.075 19.791 4.591 20.757 5.450 20.968 C6.390 21.206 6.548 21.087 10.332 17.304 C14.301 13.335 13.983 13.547 15.518 13.891 C16.894 14.195 18.468 13.666 19.645 12.502 C20.505 11.642 20.876 10.835 20.981 9.578 C21.034 9.036 21.021 8.599 20.968 8.599 C20.915 8.599 20.717 8.718 20.532 8.864 C20.095 9.208 19.645 9.194 19.315 8.837 C18.891 8.374 18.984 8.043 19.751 7.289 C20.346 6.694 20.571 6.562 21.048 6.509 C21.828 6.429 22.265 6.773 22.542 7.726 C23.072 9.538 22.490 11.880 21.127 13.428 C20.492 14.142 19.315 14.975 18.587 15.200 C18.296 15.306 17.899 15.438 17.701 15.505 C17.502 15.571 16.695 15.610 15.901 15.584 L14.459 15.544 11.284 18.733 C9.525 20.492 7.924 22.040 7.726 22.172 C6.826 22.767 5.569 22.926 4.723 22.569 "/>
  <path d="M10.358 11.628 C9.710 10.861 9.565 8.506 10.067 7.078 C10.755 5.133 12.369 3.545 14.274 2.910 C15.227 2.606 16.986 2.540 17.740 2.791 C18.627 3.096 19.143 3.903 18.878 4.617 C18.812 4.802 17.992 5.741 17.052 6.694 C15.624 8.136 15.346 8.493 15.346 8.824 C15.333 9.353 15.981 10.041 16.457 10.054 C16.827 10.054 17.330 9.829 17.462 9.618 C17.608 9.419 18.389 9.459 18.613 9.684 C18.719 9.803 18.812 10.081 18.812 10.306 C18.785 11.073 17.780 11.642 16.444 11.642 C15.399 11.642 14.724 11.258 14.142 10.345 C13.811 9.829 13.758 9.591 13.758 8.864 C13.758 7.752 14.049 7.276 15.716 5.622 C16.378 4.974 16.880 4.392 16.841 4.339 C16.669 4.048 14.909 4.366 13.917 4.868 C13.348 5.159 12.277 6.271 11.933 6.932 C11.430 7.911 11.232 9.406 11.509 10.134 C11.721 10.702 11.695 11.483 11.456 11.708 C11.152 11.986 10.610 11.946 10.358 11.628 "/>
 </g>
</svg>