<?xml version="1.0" encoding="utf-8"?>
<!DOCTYPE svg PUBLIC "-//W3C//DTD SVG 1.0//EN" "http://www.w3.org/TR/2001/REC-SVG-20010904/DTD/svg10.dtd">
<svg version="1.0" xmlns="http://www.w3.org/2000/svg" width="25.4mm" height="25.4mm" viewBox="0 0 25.4 25.4" preserveAspectRatio="xMidYMid meet">
 <g fill="#ECC86C">
  <path d="M 6.588 23.574 c -0.609 -0.609 -0.767 -1.005 -0.767 -1.879 0 -1.323 -0.265 -1.879 -1.746 -3.519 -2.090 -2.328 -2.963 -6.085 -2.090 -9.075 0.609 -2.090 1.429 -3.545 2.037 -3.545 0.820 0 0.820 0.688 0.026 2.302 -0.635 1.323 -0.741 1.852 -0.741 3.784 0 2.646 0.529 4.048 2.196 5.874 1.349 1.482 1.667 2.143 1.879 3.757 0.159 1.349 0.159 1.349 3.942 1.429 3.043 0.053 3.810 0.132 3.942 0.450 0.079 0.238 0 0.582 -0.185 0.794 -0.265 0.317 -1.085 0.397 -4.022 0.397 -3.704 0 -3.704 0 -4.471 -0.767 z "/>
  <path d="M 15.981 21.564 c -0.238 -0.582 0.079 -0.900 1.296 -1.191 2.328 -0.582 2.302 -0.556 2.302 -2.752 0 -2.143 0.079 -2.275 1.667 -2.778 0.529 -0.185 0.979 -0.397 0.979 -0.450 0 -0.079 -0.582 -0.847 -1.296 -1.746 -0.873 -1.058 -1.349 -1.931 -1.455 -2.646 -0.423 -2.593 -2.910 -5.556 -5.371 -6.403 -1.508 -0.529 -3.836 -0.529 -5.239 -0.026 -1.349 0.503 -1.958 0.503 -2.143 0 -0.265 -0.661 0.344 -1.111 2.143 -1.587 5.424 -1.482 10.636 1.720 12.065 7.382 0.185 0.767 0.794 1.852 1.587 2.858 1.799 2.223 1.693 3.228 -0.423 3.916 -0.926 0.317 -0.926 0.317 -0.926 2.064 -0.026 2.249 -0.450 2.858 -2.381 3.360 -1.852 0.503 -2.619 0.503 -2.805 0 z "/>
  <path d="M 10.266 17.410 c -0.212 -0.185 -0.529 -0.582 -0.688 -0.847 -0.185 -0.344 -0.556 -0.529 -1.138 -0.529 -0.688 -0.026 -1.005 -0.212 -1.482 -0.926 -0.714 -1.058 -0.767 -1.799 -0.159 -2.461 0.397 -0.450 0.397 -0.503 0 -0.952 -0.609 -0.661 -0.556 -1.402 0.159 -2.461 0.635 -0.952 1.561 -1.270 2.196 -0.767 0.556 0.476 0.450 1.032 -0.265 1.323 -0.926 0.344 -1.005 0.635 -0.503 1.561 0.450 0.767 0.450 0.873 0.026 1.614 -0.609 1.058 -0.370 1.587 0.741 1.587 0.820 0 1.958 0.794 1.958 1.376 0 0.106 0.238 0.212 0.529 0.212 0.291 0 0.529 -0.106 0.529 -0.265 0 -0.529 1.085 -1.323 1.826 -1.323 1.138 0 1.455 -0.556 0.900 -1.561 -0.450 -0.767 -0.450 -0.873 -0.026 -1.614 0.609 -1.058 0.370 -1.587 -0.741 -1.587 -0.820 0 -1.958 -0.794 -1.958 -1.402 0 -0.132 -0.397 -0.212 -0.847 -0.185 -1.376 0.079 -1.535 0.026 -1.535 -0.529 0 -0.635 0.741 -1.058 1.905 -1.058 0.979 0 1.561 0.344 2.011 1.164 0.185 0.344 0.556 0.529 1.138 0.529 0.688 0.026 1.005 0.212 1.482 0.926 0.714 1.058 0.767 1.799 0.159 2.461 -0.397 0.450 -0.397 0.503 0 0.952 0.609 0.661 0.556 1.402 -0.159 2.461 -0.476 0.714 -0.794 0.926 -1.587 0.979 -0.529 0.053 -0.979 0.185 -0.979 0.344 0 0.132 -0.238 0.476 -0.529 0.767 -0.609 0.609 -2.302 0.714 -2.963 0.212 z "/>
  <path d="M12.674 12.171 C 12.674 12.753 12.224 13.203 11.642 13.203 11.086 13.203 10.610 12.753 10.610 12.171 10.610 11.615 11.086 11.165 11.642 11.165 12.224 11.165 12.674 11.615 12.674 12.171 Z M10.848 12.832 "/>
 </g>
</svg>