<svg version="1.0" xmlns="http://www.w3.org/2000/svg" viewBox="0 0 400 400" preserveAspectRatio="xMidYMid meet">
 <g fill="none" stroke="#ecc86c" stroke-width="10">
  <path d="M25.394 398.448 c-10.197 -1.485 -19.495 -9.454 -22.972 -19.690 l-1.055 -3.125 -0.117 -174.241 c-0.078 -158.067 -0.039 -174.514 0.508 -177.327 1.172 -5.704 3.594 -10.275 7.774 -14.416 3.946 -3.946 7.931 -6.095 14.299 -7.735 2.852 -0.742 6.720 -0.742 177.171 -0.664 l174.241 0.117 2.578 0.820 c5.665 1.836 9.142 3.907 13.049 7.813 2.969 2.969 4.766 5.860 6.524 10.509 l1.289 3.516 0.117 174.436 0.117 174.436 -0.820 3.633 c-2.344 10.197 -10.118 18.205 -20.901 21.448 -2.227 0.664 -9.845 0.703 -175.999 0.742 -95.520 0.039 -174.631 -0.078 -175.803 -0.273z m93.371 -153.300 l0 -94.738 -29.301 0 -29.301 0 0 94.738 0 94.738 29.301 0 29.301 0 0 -94.738z m96.106 44.459 c0 -57.859 0.117 -60.437 3.164 -69.774 3.790 -11.603 10.001 -17.815 21.253 -21.214 3.282 -0.977 3.985 -1.055 10.548 -1.055 9.728 0 13.556 1.094 19.143 5.313 5.938 4.493 9.298 11.798 11.408 24.886 0.586 3.672 0.664 9.611 0.781 58.132 l0.156 53.991 29.457 0 29.496 0 0 -54.421 c0 -51.842 -0.234 -65.633 -1.211 -74.892 -1.445 -13.947 -4.297 -24.417 -9.220 -34.067 -2.969 -5.860 -4.883 -8.556 -9.650 -13.478 -5.079 -5.313 -11.681 -9.532 -19.065 -12.267 -9.689 -3.555 -19.885 -5.196 -31.762 -5.079 -10.665 0.078 -21.487 2.422 -29.926 6.446 -6.407 3.008 -15.041 9.572 -19.534 14.728 -2.383 2.813 -6.212 8.321 -6.212 8.985 0 0.195 -0.273 0.352 -0.586 0.352 -0.508 0 -0.586 -1.680 -0.586 -12.892 l0 -12.892 -17.268 0 c-9.532 0 -22.112 -0.039 -27.972 -0.039 -5.860 -0.039 -10.744 0.039 -10.861 0.117 -0.156 0.156 -0.313 156.856 -0.195 181.507 l0.039 7.892 29.301 0 29.301 0 0 -50.280z m-118.374 -165.958 c5.626 -1.172 11.916 -4.258 15.900 -7.813 4.610 -4.063 9.142 -11.564 10.665 -17.541 1.094 -4.258 1.094 -11.681 0 -16.135 -2.383 -9.962 -9.884 -18.870 -19.768 -23.440 -7.579 -3.477 -17.658 -3.750 -25.902 -0.664 -5.938 2.227 -12.619 7.618 -16.252 13.049 -8.751 13.166 -7.032 31.645 4.063 42.857 5.040 5.118 10.587 8.165 17.815 9.845 2.539 0.586 10.392 0.508 13.478 -0.156z"/>
 </g>
 <g fill="none" stroke="#ecc86c" stroke-width="10">
  <path d="M60.164 245.148 l0 -94.738 29.301 0 29.301 0 0 94.738 0 94.738 -29.301 0 -29.301 0 0 -94.738z"/>
  <path d="M156.230 331.995 c-0.117 -24.652 0.039 -181.351 0.195 -181.507 0.117 -0.078 5.001 -0.156 10.861 -0.117 5.860 0 18.440 0.039 27.972 0.039 l17.268 0 0 12.892 c0 11.212 0.078 12.892 0.586 12.892 0.313 0 0.586 -0.156 0.586 -0.352 0 -0.664 3.829 -6.173 6.212 -8.985 4.493 -5.157 13.127 -11.720 19.534 -14.728 8.439 -4.024 19.260 -6.368 29.926 -6.446 22.034 -0.195 39.771 5.860 50.827 17.346 4.766 4.922 6.681 7.618 9.650 13.478 4.922 9.650 7.774 20.120 9.220 34.067 0.977 9.259 1.211 23.050 1.211 74.892 l0 54.421 -29.496 0 -29.457 0 -0.156 -53.991 c-0.117 -48.522 -0.195 -54.460 -0.781 -58.132 -2.110 -13.088 -5.469 -20.393 -11.408 -24.886 -5.587 -4.219 -9.415 -5.313 -19.143 -5.313 -6.563 0 -7.267 0.078 -10.548 1.055 -15.158 4.571 -22.073 15.002 -23.987 36.176 -0.273 2.852 -0.430 23.011 -0.430 54.812 l0 50.280 -29.301 0 -29.301 0 -0.039 -7.892z"/>
  <path d="M83.018 123.805 c-7.227 -1.680 -12.775 -4.727 -17.815 -9.845 -11.095 -11.212 -12.814 -29.691 -4.063 -42.857 2.266 -3.399 7.540 -8.439 10.978 -10.470 7.501 -4.454 16.682 -5.821 25.628 -3.829 4.962 1.094 10.900 4.376 15.236 8.360 4.688 4.336 8.673 11.056 10.079 16.994 1.094 4.454 1.094 11.876 0 16.135 -1.524 5.977 -6.055 13.478 -10.665 17.541 -3.985 3.555 -10.275 6.641 -15.900 7.813 -3.086 0.664 -10.939 0.742 -13.478 0.156z"/>
 </g>
</svg>