<?xml version="1.0" encoding="utf-8"?>
<!DOCTYPE svg PUBLIC "-//W3C//DTD SVG 1.1//EN" "http://www.w3.org/Graphics/SVG/1.1/DTD/svg11.dtd">
<svg version="1.1" xmlns="http://www.w3.org/2000/svg" width="1024px" height="1024px" viewBox="0 0 1024 1024" preserveAspectRatio="xMidYMid meet">
 <g fill="#c3812a">
  <path d="M484 798.7 c0 -0.3 5.6 -4.4 12.5 -9.3 l12.5 -8.8 0.1 -17.6 c0.1 -9.6 0.2 -17.9 0.4 -18.5 0.1 -0.5 0.3 -5.6 0.3 -11.2 0.2 -10.3 0.2 -10.3 2.7 -10.3 l2.5 0 0 28.5 0 28.4 7.3 5.4 c4 3 9.8 7.1 13 9.2 3.1 2.1 5.5 4 5.3 4.2 -0.2 0.3 -6.6 -3 -14.3 -7.2 l-13.8 -7.7 -5 2.6 c-2.7 1.4 -9.2 4.8 -14.2 7.6 -5.1 2.8 -9.3 4.9 -9.3 4.7z"/>
  <path d="M279.2 663.3 l0.3 -2.8 44.3 -0.3 c38.1 -0.2 44.4 -0.4 44.8 -1.7 0.4 -0.8 1.9 -1.5 3.5 -1.5 2.1 0 2.7 0.4 2.3 1.4 -0.8 2 16.9 2.2 162.4 1.8 99.9 -0.3 115.3 -0.5 114.8 -1.8 -0.4 -1 0.3 -1.4 2.4 -1.4 2 0 3 0.5 3 1.5 0 1.3 5.7 1.5 45 1.5 44.3 0 45 0 45 2 0 2 -0.7 2 -32.5 2 -21 0 -32.5 0.4 -32.5 1 0 0.7 -54.2 1 -160.5 1 -106.3 0 -160.5 -0.3 -160.5 -1 0 -0.6 -13.7 -1 -39 -1 -25.3 0 -39 0.4 -39 1 0 0.6 -0.9 1 -2.1 1 -1.6 0 -2 -0.5 -1.7 -2.7z"/>
  <path d="M525.7 514.3 c-11.9 -20.1 -13.6 -22.4 -14.4 -20.5 -0.3 0.7 -2.4 4.1 -4.7 7.5 -3.1 4.7 -4.7 6.3 -6.8 6.5 -1.6 0.2 -2.8 0.1 -2.8 -0.3 0 -0.9 14 -24.4 14.9 -24.9 0.4 -0.3 7.1 10 14.8 22.9 13 21.7 13.9 23.5 12.3 25 -0.9 0.8 -1.9 1.5 -2.2 1.5 -0.3 0 -5.3 -8 -11.1 -17.7z"/>
  <path d="M526 490.4 c-11.9 -20 -13.6 -22.4 -14.7 -20.8 -3.4 5.1 -3.9 5.6 -7 5.2 l-3 -0.3 5.4 -8.8 5.5 -8.8 16.2 26.8 c14.2 23.4 16.1 27 14.7 28 -0.9 0.7 -2 1.2 -2.6 1.2 -0.5 0 -7.1 -10.1 -14.5 -22.5z"/>
  <path d="M550 338.3 c-9.5 -15.9 -21.6 -35.9 -26.8 -44.5 -5.2 -8.7 -9.8 -15.5 -10.3 -15.3 -0.4 0.3 -3.6 5.3 -7 11 -3.4 5.8 -6.8 10.5 -7.5 10.5 -0.8 0 -1.4 -0.4 -1.4 -1 0 -0.5 -0.6 -1 -1.4 -1 -1 0 1.2 -4.4 6.1 -12.2 4.1 -6.8 8.2 -13.6 9 -15.1 0.8 -1.6 1.8 -2.7 2.3 -2.5 0.5 0.2 8.7 13.1 18.3 28.8 9.5 15.7 20 32.8 23.1 38 14.4 23.5 17.6 28.8 17.6 29.4 0 0.3 -0.7 0.6 -1.5 0.6 -0.8 0 -1.5 0.5 -1.5 1 0 3.1 -3.4 -1.8 -19 -27.7z"/>
 </g>
 <g fill="#d28321">
  <path d="M433 664.1 l-13.5 -0.6 9.4 -0.7 c14.3 -1.2 153.7 -1 152.5 0.2 -1.1 1.1 -127.7 2.1 -148.4 1.1z"/>
 </g>
 <g fill="#f0c86b">
  <path d="M280 663.5 l0 -2.5 44.2 0 44.1 0 -2.3 2.5 -2.3 2.5 -41.9 0 -41.8 0 0 -2.5z"/>
  <path d="M674 664.7 c-3 -0.5 -4.9 -1.2 -4.2 -1.4 0.6 -0.3 1 -0.9 0.6 -1.4 -0.3 -0.5 15 -0.9 38 -0.9 l38.6 0 0 2.5 0 2.5 -33.7 -0.1 c-18.6 -0.1 -36.3 -0.6 -39.3 -1.2z"/>
  <path d="M640.4 646.3 c-1.6 -1.7 -1.6 -1.8 -0.1 -2.1 1.5 -0.3 1.3 -0.9 -1.1 -4.5 -7.5 -11 -25.3 -42.1 -24.8 -43.3 0.3 -0.8 1.4 -1.4 2.5 -1.4 1.4 0 5.5 6 16.2 24.2 8.3 13.8 15.1 24.3 16.2 24.6 0.9 0.2 1.7 1 1.7 1.7 0 2.9 -7.9 3.4 -10.6 0.8z"/>
  <path d="M374 645.6 c0 -0.8 0.8 -1.7 1.8 -2 0.9 -0.4 7 -9.6 13.5 -20.6 8.6 -14.6 12.3 -20 13.6 -20 4.3 0 3 3.4 -8.3 22.1 -6.9 11.4 -10.8 18.9 -10 18.9 0.8 0 1.4 0.7 1.4 1.5 0 1.2 -1.3 1.5 -6 1.5 -4.5 0 -6 -0.3 -6 -1.4z"/>
  <path d="M411.2 623.8 c0.8 -1.3 6.6 -10.7 12.8 -21 9.5 -15.9 11.6 -18.8 13.6 -18.8 1.6 0 2.4 0.6 2.4 1.8 0 0.9 -4.5 9.1 -10 18.2 l-10 16.5 24.5 0.3 24.5 0.2 0 2.5 0 2.5 -29.6 0 -29.6 0 1.4 -2.2z"/>
  <path d="M590 623.5 c0 -2.3 0.3 -2.4 7 -2.7 l7 -0.3 -9 -15 c-4.9 -8.2 -9 -15.3 -9 -15.7 0 -0.5 1.2 -0.8 2.8 -0.8 2.4 0 3.6 1.5 11.7 14.7 5 8.1 10 16.4 11.2 18.5 l2.2 3.8 -12 0 -11.9 0 0 -2.5z"/>
  <path d="M433.1 612.4 c0.9 -1 5.2 -8 9.6 -15.4 25.2 -42.5 54.7 -90.8 56.7 -92.8 1.4 -1.5 3.2 -2.2 4.5 -2 2 0.3 -0.6 5 -26.6 48.3 -27.4 45.5 -34.3 57.3 -34.3 58.1 0 0.2 6.1 0.4 13.5 0.4 11.1 0 13.7 -0.3 14.1 -1.5 1.1 -2.7 2.4 -1.6 2.4 2 l0 3.5 -7.7 0 c-4.3 0 -13.6 0.3 -20.8 0.7 -12.7 0.6 -13 0.6 -11.4 -1.3z"/>
  <path d="M580.3 613.3 c-3 -0.6 -3.2 -4.3 -0.3 -4.3 2 0 2 0 0.1 -2.7 -1 -1.6 -11.7 -19.4 -23.6 -39.8 -21.5 -36.6 -22.6 -39 -18.7 -40.3 0.6 -0.2 1.7 0.7 2.5 2 1.6 2.6 30.7 51.8 40.5 68.3 3.5 6.1 7.3 12.2 8.3 13.7 1.1 1.5 1.9 3 1.9 3.3 0 0.6 -7.3 0.5 -10.7 -0.2z"/>
  <path d="M546.6 524.8 c-7.4 -12.3 -8.4 -14.5 -7.2 -15.7 0.8 -0.7 2.1 -1.1 2.8 -0.8 0.8 0.3 4.9 6.4 9.2 13.5 6.6 11.2 7.6 13.4 6.6 15.1 -0.6 1.2 -1.5 2.1 -2 2.1 -0.5 0 -4.7 -6.4 -9.4 -14.2z"/>
  <path d="M535.3 466.3 c-15.6 -26.2 -16.5 -28.2 -12.2 -28.3 2.2 0 33.1 51.2 32.3 53.4 -1.7 4.5 -4.3 1.2 -20.1 -25.1z"/>
  <path d="M500.4 478.5 c-1.1 -2.6 2.3 -6.5 5.6 -6.5 3.6 0 3.6 0.3 0.9 4.6 -2.2 3.6 -5.5 4.5 -6.5 1.9z"/>
  <path d="M499 441.3 c0 -0.4 1.7 -3.5 3.8 -7 3.3 -5.7 4 -6.3 7 -6.3 1.8 0 3.1 0.3 2.9 0.8 -0.2 0.4 -2.1 3.5 -4.1 7 -3.2 5.3 -4.1 6.2 -6.7 6.2 -1.6 0 -2.9 -0.3 -2.9 -0.7z"/>
  <path d="M590 404.3 c-11.2 -18.6 -21.1 -35 -22.2 -36.5 -2.1 -3.1 -2.3 -5.1 -0.5 -6.7 1.1 -0.8 1.8 -0.7 2.9 0.7 1.7 1.8 44.6 72.6 45.5 74.9 0.4 0.9 -0.4 1.3 -2.5 1.3 -2.9 0 -3.8 -1.4 -23.2 -33.7z"/>
  <path d="M466.4 344.3 c0.8 -1.6 7.7 -13.1 15.3 -25.8 10.2 -16.9 14.4 -23.1 16 -23.3 4.6 -0.7 3 3.1 -11.5 27.3 -14.4 24 -14.8 24.5 -18 24.5 -3.2 0 -3.2 0 -1.8 -2.7z"/>
 </g>
 <g fill="#f6e2a0">
  <path d="M370.6 655.3 c1.5 -2.7 3.2 -5.4 3.7 -6 0.7 -1 -4.2 -1.3 -24.2 -1.3 -24.3 0 -25.1 -0.1 -25.1 -2 0 -1.9 0.9 -1.9 25.8 -2.2 14.1 -0.2 30.5 -0.2 36.5 0 9.9 0.2 10.7 0.4 10.7 2.2 0 1.8 -0.7 2 -8.9 2 l-9 0 -3.3 6 c-2.8 5.1 -3.7 6 -6.1 6 l-2.8 0 2.7 -4.7z"/>
  <path d="M649.8 655.6 c-1.6 -2.4 -2.8 -4.8 -2.8 -5.3 0 -2 -3.4 -2.3 -30.1 -2.3 -26.2 0 -26.9 0 -26.9 -2 0 -1.9 0.7 -2 26.3 -2.1 14.4 -0.1 26.7 0 27.2 0.1 0.6 0.1 7.9 0.1 16.3 0 14.7 -0.1 15.2 0 15.2 2 0 1.9 -0.6 2 -12.5 2 l-12.5 0 3.5 4.9 c4.1 5.7 4.3 7.1 1.3 7.1 -1.6 0 -3.1 -1.3 -5 -4.4z"/>
  <path d="M284 647.6 c0 -0.3 2.7 -5 6.1 -10.5 5 -8.3 6.5 -10.1 8.5 -10.1 3.4 0 3 2.3 -1.6 10 l-4 6.5 7 0.3 c6.2 0.3 7 0.5 7 2.2 0 1.9 -0.8 2 -11.5 2 -6.3 0 -11.5 -0.2 -11.5 -0.4z"/>
  <path d="M564 646 c0 -1.9 0.7 -2 11.5 -2 10.8 0 11.5 0.1 11.5 2 0 1.9 -0.7 2 -11.5 2 -10.8 0 -11.5 -0.1 -11.5 -2z"/>
  <path d="M728 646 c0 -1.6 0.7 -2 3.2 -2 2.9 0 3 -0.1 1.6 -1.7 -0.8 -1 -19.4 -31.7 -41.3 -68.3 -21.9 -36.6 -49.5 -82.6 -61.3 -102.3 -14.3 -24 -21.1 -36.2 -20.4 -36.9 2.8 -2.8 5.2 0.6 26.6 36.2 12 20.1 40.3 67.3 62.9 105 22.5 37.7 41.7 69.3 42.5 70.3 1.4 1.6 1.1 1.7 -6.1 1.7 -7 0 -7.7 -0.2 -7.7 -2z"/>
  <path d="M457 624.5 c0.7 -0.8 3.1 -1.6 5.4 -1.7 2.2 -0.1 -3.1 -0.5 -11.9 -0.8 -8.8 -0.3 20.2 -0.7 64.4 -0.8 71 -0.2 80.2 0 79.1 1.3 -1 1.2 -1 1.6 0.1 1.9 0.8 0.2 2.1 0.7 2.9 0.9 0.8 0.3 -30.6 0.6 -69.9 0.6 -63.3 0.1 -71.2 -0.1 -70.1 -1.4z"/>
  <path d="M410.6 587.4 c30.3 -50.2 33.7 -55.8 34.9 -57.2 1.4 -1.6 4.5 -0.5 4.5 1.6 0 1.9 -4.8 10.2 -5.9 10.2 -0.4 0 -0.8 0.6 -0.8 1.3 0 0.7 -3.3 6.7 -7.3 13.3 -4 6.5 -12.7 20.9 -19.3 31.9 -6.6 11 -12.6 20.6 -13.3 21.2 -1.7 1.7 -3 1.7 -1.6 0 0.7 -0.8 0.7 -1.8 0.1 -2.7 -0.8 -1.3 -1 -1.3 -1.9 0 -0.5 0.8 -0.8 2.1 -0.5 2.8 0.3 0.7 0.1 1.1 -0.4 0.8 -1.3 -0.8 -4.3 4.2 -3.5 5.7 0.4 0.7 0.4 0.9 -0.1 0.5 -0.4 -0.4 -1.4 -0.3 -2.2 0.3 -0.7 0.6 7.1 -12.7 17.3 -29.7z"/>
  <path d="M445 613.2 c-0.8 -0.4 -1.6 -1.3 -1.7 -1.9 -0.2 -1 2.9 -1.3 13.1 -1.3 11 0 13.5 -0.3 14 -1.5 0.3 -0.8 3.9 -5.5 8 -10.3 4.1 -4.8 13.1 -15.4 20.1 -23.7 7 -8.2 13.1 -15 13.5 -15 0.9 0 15.5 17.2 32.5 38.3 l9 11.2 12.6 0 c14.8 0 18.1 0.5 19.7 3.1 1.2 1.8 -0.5 1.8 -69.1 1.8 -38.6 0 -70.9 -0.3 -71.7 -0.7z m95.6 -12.9 c-4.1 -4.9 -12 -14.3 -17.5 -21 -5.6 -6.8 -10.8 -12.3 -11.5 -12.3 -0.8 0 -2 0.9 -2.7 1.9 -0.8 1 -8.2 9.9 -16.4 19.7 -8.3 9.9 -15.4 18.5 -15.8 19.2 -0.7 0.9 6.7 1.2 35.3 1.2 l36.1 0 -7.5 -8.7z"/>
  <path d="M312.6 599.8 c3.1 -5.1 5.8 -9.5 6 -9.7 0.3 -0.3 1.2 0.2 2.1 1.1 2 2.1 1.3 4.8 -3.2 12.1 -3.3 5.1 -4 5.7 -7.1 5.7 l-3.4 0 5.6 -9.2z"/>
  <path d="M429.1 603 c1.2 -2.5 3.2 -6.2 4.5 -8.2 1.3 -2 2.1 -4.4 1.8 -5.3 -0.4 -0.8 -0.1 -1.5 0.7 -1.5 0.7 0 0.9 -0.3 0.6 -0.6 -0.4 -0.4 -1.3 -0.1 -2.2 0.6 -1.3 1.1 -1.4 1 -0.8 -0.6 0.5 -1.1 3.5 -6.5 6.8 -12.2 5.1 -8.7 6.4 -10.2 8.6 -10.2 1.4 0 2.8 0.3 3.2 0.6 0.6 0.6 -19.8 34.9 -23.4 39.4 -1.9 2.3 -1.8 2.1 0.2 -2z"/>
  <path d="M614.3 598.3 c-1.1 -1.5 -6 -9.5 -10.8 -17.8 -4.9 -8.2 -18.9 -31.8 -31.2 -52.4 -12.3 -20.6 -22.1 -38.1 -21.9 -38.8 0.3 -0.7 1.4 -1.3 2.5 -1.3 1.6 0 6.5 7.5 22.7 34.8 11.4 19.1 26 43.5 32.4 54.2 12.9 21.7 13.4 22.7 11.4 22.7 -0.7 0 -1.1 -0.5 -0.8 -1.1 0.3 -0.6 -0.1 -0.3 -0.9 0.7 -1.4 1.7 -1.6 1.7 -3.4 -1z"/>
  <path d="M584.7 588.3 c-2.9 -4.9 -11.1 -18.4 -18.2 -30.2 -11.9 -19.9 -12.6 -21.5 -11.5 -24 l1.2 -2.6 1.8 2.3 c1.8 2.2 26.7 43.2 33.7 55.6 1.8 3.2 3.2 6.1 2.9 6.3 -0.2 0.3 -0.9 -0.5 -1.6 -1.6 -0.6 -1.2 -1.7 -2.1 -2.5 -2.1 -1.8 0 -1.8 0.5 -0.5 3.1 0.6 1 0.9 1.9 0.6 1.9 -0.3 0 -2.9 -3.9 -5.9 -8.7z"/>
  <path d="M326.3 582 c-2.1 -0.9 -2.1 -1 2.5 -8.9 3.6 -6.2 5.2 -8 6.7 -7.8 1.1 0.1 2.1 1 2.3 2 0.4 1.8 -7.4 15.8 -8.7 15.6 -0.3 0 -1.6 -0.4 -2.8 -0.9z"/>
  <path d="M459 551.1 c0 -1.1 -0.5 -2.1 -1.1 -2.3 -0.6 -0.2 0.3 -2.7 2.3 -6.1 2.9 -5 3.7 -5.7 6.6 -5.7 1.7 0 3.2 0.2 3.2 0.5 0 1.2 -9.3 15.5 -10.1 15.5 -0.5 0 -0.9 -0.9 -0.9 -1.9z"/>
  <path d="M350.3 537.5 c4.5 -7.3 5.6 -8.5 8 -8.5 1.5 0 2.7 0.5 2.7 1.1 0 0.6 -2.1 4.5 -4.6 8.5 -4.3 6.8 -4.9 7.4 -8 7.4 l-3.4 0 5.3 -8.5z"/>
  <path d="M449.5 525 c-0.9 -1.4 22.6 -40.2 24.6 -40.7 0.9 -0.3 1.9 -1.8 2.3 -3.4 0.3 -1.6 0.7 -3.2 0.8 -3.7 0.7 -2.2 34.6 -57.7 35.3 -57.7 0.4 0 3.7 4.7 7.2 10.4 4.9 7.9 6.1 10.6 5.1 11.2 -0.7 0.5 -1.7 0.9 -2.1 0.9 -0.5 0 -0.5 0.5 -0.2 1 0.3 0.6 0.4 1 0.1 1 -0.3 0 -2.4 -3.2 -4.7 -7 -4.6 -7.7 -5.4 -8.7 -6.2 -6.6 -0.3 0.8 -1.5 1.2 -3 0.9 -1.9 -0.4 -2.9 0.2 -4.6 3 -2.2 3.6 -2.7 5.2 -1.3 4.3 0.4 -0.2 1.4 -0.1 2.2 0.4 1.2 0.8 -6.8 14.7 -48 82.7 -2.4 4.1 -6 5.7 -7.5 3.3z"/>
  <path d="M487.4 502.3 c-0.9 -2.5 -0.2 -4.1 6.4 -15 4 -6.8 7.6 -12.3 8 -12.3 0.4 0 1.5 0.7 2.6 1.5 1.7 1.3 1.4 2.1 -6.4 14.9 -4.4 7.5 -8.5 13.6 -8.9 13.6 -0.4 0 -1.2 -1.2 -1.7 -2.7z"/>
  <path d="M374.4 501.8 c-2.1 -1 -2 -1.2 2.4 -8.4 3.6 -5.9 5 -7.4 6.6 -7.2 1.2 0.2 2.2 1 2.4 1.8 0.3 1.7 -6.9 14.3 -8.4 14.6 -0.5 0.2 -1.9 -0.2 -3 -0.8z"/>
  <path d="M387.7 477.4 c-0.3 -0.4 0.8 -3.3 2.6 -6.6 2.4 -4.4 3.7 -5.8 5.2 -5.6 3 0.4 3 3.3 0 8.3 -1.9 3.3 -3.2 4.5 -4.9 4.5 -1.2 0 -2.6 -0.3 -2.9 -0.6z"/>
  <path d="M398.8 462.3 c-2.5 -0.6 -2.3 -1.7 1.4 -7.9 2.7 -4.5 3.8 -5.4 6 -5.4 1.6 0 2.8 0.5 2.8 1.3 0 1.6 -6.9 12.7 -7.8 12.6 -0.4 -0.1 -1.5 -0.3 -2.4 -0.6z"/>
  <path d="M444.3 386.3 c0.3 -2.1 0.7 -4.5 0.9 -5.4 0.6 -2.4 21.6 -37.6 22.9 -38.5 0.8 -0.5 1 -0.3 0.4 0.7 -0.6 1.1 -0.5 1.2 0.6 0.2 1.2 -1.2 4.9 -1.8 4.9 -0.8 0 1.4 -28.3 47.5 -29.2 47.5 -0.6 0 -0.8 -1.5 -0.5 -3.7z"/>
 </g>
 <g fill="#fcefb7">
  <path d="M300.5 647 c0.3 -0.5 1.3 -1 2.1 -1 0.8 0 1.2 -0.4 0.9 -1 -0.4 -0.7 5.4 -0.9 16.7 -0.8 11.1 0.1 15.5 0.4 12.3 0.8 -2.7 0.4 -4.8 0.8 -4.5 1 0.3 0.2 9.3 0.6 20 1 18.2 0.6 17.2 0.6 -14.3 0.8 -22.3 0.1 -33.6 -0.1 -33.2 -0.8z"/>
  <path d="M393.3 646.6 c1.8 -1.4 1.8 -1.4 0 -1.9 -1 -0.3 52 -0.4 117.7 -0.3 65.7 0 111 0.3 100.5 0.6 -10.4 0.3 -18.3 0.8 -17.5 1.2 0.8 0.5 12.8 0.9 26.5 1.1 13.8 0.1 -32.1 0.3 -102 0.4 -108.2 0.2 -126.7 0 -125.2 -1.1z"/>
  <path d="M667.5 647 c0.3 -0.5 1.6 -1.1 2.8 -1.2 1.2 0 0 -0.4 -2.8 -0.8 -2.7 -0.4 11.2 -0.7 31 -0.8 19.8 0 35.1 0.3 34 0.8 -2.1 0.8 -1.5 1.3 3 2.3 1.1 0.3 -13.9 0.5 -33.3 0.6 -23.3 0.1 -35.1 -0.2 -34.7 -0.9z"/>
  <path d="M294.3 632.3 c-0.6 -0.2 2 -5.4 6.5 -12.7 12.3 -19.6 13.6 -21.5 15 -21.6 0.8 0 1 0.5 0.6 1.3 -0.4 0.6 0.2 0.4 1.2 -0.6 1.6 -1.5 1.7 -2 0.6 -3.8 -1.1 -1.8 -0.9 -2.7 1.4 -6.7 4.6 -8 7.6 -11.6 8.5 -10.1 1 1.7 3.4 -0.3 5.5 -4.7 1.8 -3.8 1 -6.5 -1.2 -3.7 -3.1 4 0 -2.3 6.4 -13.2 8.3 -14 12.1 -18.8 13.7 -17.5 0.7 0.5 1.5 0.6 1.9 0.2 1.9 -1.8 -2.4 6.4 -9.8 18.8 -4.4 7.4 -8.3 13.7 -8.6 14 -1.4 1.3 -5 7 -5 7.9 0 1.1 -9.9 17.4 -11.1 18.1 -0.5 0.3 -2.1 3 -3.6 6.1 -5.3 10.4 -16.8 28.9 -18 28.9 -0.7 0 -1 -0.7 -0.7 -1.7 0.5 -1.6 0.4 -1.6 -0.8 -0.2 -0.7 0.9 -1.8 1.4 -2.5 1.2z"/>
  <path d="M470.5 608 c0.5 -0.8 3.2 -4.2 6.1 -7.5 3.7 -4.3 6 -6 7.9 -6.1 1.6 -0.1 2.4 0.3 2.2 1 -0.2 0.6 -1.6 1.1 -3.1 1.1 -2.1 0.1 -3.9 1.4 -7.3 5.5 -5.2 6.4 -7 8.2 -5.8 6z"/>
  <path d="M445.6 568.1 c-0.3 -0.4 0.5 -2.3 1.8 -4.2 1.2 -1.9 10.5 -17.1 20.6 -33.9 10.1 -16.8 19.5 -31.8 20.8 -33.5 l2.5 -3 -0.7 2.9 c-0.6 2.3 -0.4 2.7 0.8 2.3 2.4 -0.9 0.6 2.6 -11.7 23.1 -7.8 12.9 -11.5 18.2 -12.8 18.2 -2.5 0 -7.2 5.2 -5.7 6.1 0.7 0.4 1.5 0.6 2 0.3 1.4 -0.9 -2.3 6.8 -7 14.4 -3.9 6.3 -5.3 7.7 -7.5 7.9 -1.4 0.1 -2.9 -0.2 -3.1 -0.6z"/>
  <path d="M432.1 552.4 c-0.1 -0.6 0.5 -1.7 1.3 -2.3 0.8 -0.7 2.4 -3.1 3.5 -5.4 2.9 -5.9 5.6 -8.8 7.5 -8.1 1 0.4 1.8 0 2.2 -1 0.9 -2.4 -0.3 -3.1 -2.3 -1.5 -1.5 1.2 -1.6 1.2 -0.8 -0.1 0.6 -0.8 1 -1.7 1 -2 0.1 -1.1 6.6 -11.8 7.8 -12.7 0.6 -0.5 2.5 -1.5 4 -2.1 2.7 -1.2 2.8 -1.1 2.1 1 -0.7 2.4 -9.2 16.9 -10.4 17.8 -0.4 0.3 -1.7 2.7 -3 5.3 -1.9 3.7 -2.8 4.7 -4.3 4.3 -1.9 -0.5 -4 1.1 -6.9 5.4 -0.9 1.4 -1.7 2 -1.7 1.4z m22.4 -32.4 c-0.6 -0.9 -0.9 -0.9 -1.6 0.1 -1 1.7 0 3.4 1.3 2.1 0.6 -0.6 0.7 -1.6 0.3 -2.2z"/>
  <path d="M357 534.5 c1.1 -2.8 1 -2.8 -0.8 -1.2 -2 1.9 -3.2 2.2 -3.2 0.8 0 -1 19 -33.2 21 -35.6 1 -1.2 1.6 -1.3 2.7 -0.4 1.6 1.4 1.5 1.5 4.3 -3.5 1.6 -3 1.8 -4.1 0.9 -5 -0.9 -0.8 -1 -0.8 -0.5 0.2 0.4 0.6 0.2 1.2 -0.3 1.2 -0.6 0 -1.1 0.9 -1.1 2 0 1.1 -0.7 2 -1.6 2 -0.9 0 -1.2 0.5 -0.8 1.2 0.4 0.7 0.3 0.8 -0.4 0.4 -0.9 -0.5 -0.7 -1.4 0.5 -3.3 1 -1.4 1.8 -3.1 1.9 -3.7 0.1 -0.6 2.3 -4.6 4.9 -8.9 3.9 -6.4 4.9 -7.6 6.1 -6.6 1.2 1 1.8 0.8 2.9 -0.7 1.9 -2.5 1.9 -4.1 0 -5.1 -1.3 -0.7 -1.1 -1.4 0.8 -4.3 1.3 -1.9 13.3 -21.7 26.7 -44 13.4 -22.3 25.1 -41.4 26.2 -42.5 1.8 -1.9 1.8 -1.9 1.8 0.3 0 1.2 0.4 2.2 0.9 2.2 1.5 0 -7.5 16.3 -24.5 44 -2.8 4.7 -8.2 13.7 -12 20 -3.8 6.3 -7.2 11.6 -7.6 11.8 -0.4 0.2 -2.1 3.1 -3.8 6.6 -1.7 3.4 -4.2 7.5 -5.5 9 -1.4 1.6 -2.5 3.3 -2.5 3.8 0 1.1 -9 15.9 -10.7 17.6 -0.7 0.7 -1.6 2.4 -1.9 3.8 -0.3 1.3 -1 2.4 -1.5 2.4 -0.5 0 -0.9 0.5 -0.9 1.1 0 1.5 -18.8 32.8 -21.2 35.4 -1.9 2 -1.9 2 -0.8 -1z m47.3 -78.7 c0.9 -1.8 1.4 -3.4 1.3 -3.6 -1 -0.9 -3.6 1.4 -4.5 3.9 -1.4 4.2 1.2 3.9 3.2 -0.3z"/>
  <path d="M465.7 504 c0.4 -1.7 0.2 -2.1 -0.8 -1.8 -0.8 0.3 -1.3 1 -1.2 1.5 0.1 0.5 -0.4 1 -1.2 1 -1.6 0 -0.8 -2.3 2.1 -6 2.5 -3.1 3.4 -3.4 3.4 -0.9 0 0.9 1.6 -0.8 3.5 -3.8 3.9 -6.2 4.1 -7 2.1 -7 -1.4 0 -3.2 3.6 -2.8 5.2 0.1 0.4 -0.5 0.5 -1.4 0.1 -1.3 -0.5 -1.3 -0.7 0.1 -2.3 0.8 -0.9 1.5 -1.9 1.5 -2.3 0 -1.1 7.2 -12.6 8.6 -13.8 1.1 -0.9 1.4 -0.7 1.4 1 0 1.1 0.4 2.1 0.9 2.1 0.6 0 -0.6 3.2 -2.6 7 -2 3.9 -3.9 7 -4.3 7 -0.5 0 -1.1 1.1 -1.4 2.5 -0.4 1.4 -1 2.5 -1.5 2.5 -0.5 0 -1.4 1.5 -2.1 3.4 -0.6 1.8 -1.9 4.1 -3 5.1 -1.8 1.6 -1.8 1.6 -1.3 -0.5z"/>
 </g>
 <g fill="#fcf3c9">
  <path d="M518 646.5 c1 -1.2 2.8 -1.4 8.9 -0.9 4.2 0.3 15.9 0.9 26.1 1.3 l18.5 0.8 -27.4 0.1 c-24.1 0.2 -27.2 0 -26.1 -1.3z"/>
 </g>
</svg>