<?xml version="1.0" encoding="utf-8"?>
<!DOCTYPE svg PUBLIC "-//W3C//DTD SVG 1.1//EN" "http://www.w3.org/Graphics/SVG/1.1/DTD/svg11.dtd">
<svg version="1.1" xmlns="http://www.w3.org/2000/svg" width="365px" height="290px" viewBox="0 0 365 290" preserveAspectRatio="xMidYMid meet">
 <g fill="#f2c241">
  <path d="M5.3 287.8 c-2.8 -1.4 -5.5 -8 -4.7 -11.6 1 -4.2 16.6 -31.6 17.5 -30.7 0.3 0.2 0.6 -0.5 0.6 -1.7 0.1 -1.1 0.9 -2.8 1.7 -3.7 0.9 -1 1.6 -2 1.6 -2.3 0 -0.5 5.2 -9.6 9 -15.8 0.5 -0.8 2.6 -4.4 4.6 -7.8 3.6 -6.4 3.6 -6.4 -4.1 -13.4 -10.9 -10.1 -19.5 -23.3 -19.5 -30 0 -5.3 1.1 -7.8 3.1 -7.8 1.1 0 2.2 0.8 2.6 1.8 2 6 8.9 18.5 12.6 23 2.5 3 7.8 7.9 11.8 10.9 4.1 3 7.6 5.7 7.8 5.9 0.2 0.2 -0.7 2 -1.9 4.1 -2.9 4.8 -32.4 56.1 -36.2 62.8 -4.9 8.8 -2.9 11.8 4.4 6.6 31.9 -23 44.7 -29.8 64.8 -34.8 5.6 -1.4 18.4 -1.7 89.5 -2.3 80 -0.6 83.3 -0.7 91.8 -2.8 37 -9 67.8 -33.6 83.2 -66.5 16.3 -35.1 12.8 -77.7 -9.4 -111.2 -8.4 -12.8 -24.7 -28 -38.3 -35.9 -5.7 -3.2 -6.3 -5.6 -1.5 -5.6 2.8 0 6.8 1.8 8.7 3.9 1.1 1.2 5.7 3 9.4 3.6 3.1 0.5 5.5 2.3 13 9.8 37.9 38 47.8 94.6 24.6 141.2 -7.1 14.3 -13.5 23.1 -24.8 34.2 -12.1 11.8 -22.3 18.4 -45.4 29.4 -4 1.9 -25 6.9 -33.3 7.8 -5.5 0.7 -37.2 1.1 -82.5 1.1 -78 0 -81.9 0.2 -95.2 4.9 -9.5 3.3 -23.1 10.8 -35 19.4 -19.8 14.2 -20.7 14.7 -24.7 14.6 -2 0 -4.6 -0.5 -5.8 -1.1z"/>
 </g>
 <g fill="#f7dc99">
  <path d="M8 128.3 c0.1 -3.1 4.7 -15 8.4 -21.7 4.7 -8.4 10 -13.6 13.8 -13.6 2.3 0 2.8 -0.4 2.8 -2.5 0 -1.6 0.6 -2.5 1.5 -2.5 0.8 0 1.5 -0.4 1.5 -1 0 -0.5 1.4 -1 3 -1 2.3 0 3 -0.4 3 -2 0 -1.1 0.7 -2 1.5 -2 0.8 0 1.5 -0.4 1.5 -0.9 0 -0.4 2 -1.6 4.5 -2.5 3 -1.2 4.5 -2.4 4.5 -3.5 0 -1.4 1.8 -2.3 7.3 -3.9 3.9 -1.2 9.3 -2.4 12 -2.8 2.8 -0.4 4.7 -1.1 4.7 -1.9 0 -0.7 0.7 -1.5 1.5 -1.9 0.8 -0.3 1.5 -1.7 1.5 -3.1 0 -2.1 0.5 -2.5 3 -2.5 3 0 3 0 3 8.5 0 6.2 -0.3 8.5 -1.3 8.5 -6.1 0 -19.7 2.7 -26.7 5.3 -17.3 6.5 -26.5 14.8 -37.9 33.8 -1.2 2.1 -3.3 4.4 -4.6 5.3 -1.4 0.9 -2.5 2.3 -2.5 3.1 0 0.8 -0.5 2.6 -1.2 4 -1.3 2.9 -4.8 3.4 -4.8 0.8z"/>
  <path d="M98 12.1 c0 -3.1 0.5 -4 2.5 -4.9 1.4 -0.6 2.5 -1.8 2.5 -2.6 0 -1.5 1 -1.9 6.9 -3.1 1.9 -0.4 32.8 -0.7 68.7 -0.8 59.3 0 65.4 0.2 66.9 1.7 0.9 0.9 2.3 1.6 3.1 1.6 0.9 0 1.4 1 1.4 2.8 0 2.7 0 2.7 -65.2 2.4 -69.3 -0.3 -74.8 0 -82.5 4.3 -4.3 2.4 -4.3 2.4 -4.3 -1.4z"/>
 </g>
 <g fill="#f1d27b">
  <path d="M12.2 174.3 c-4.2 -10 -5.6 -17.3 -5.6 -30.3 0 -10.8 0.3 -13.2 2.2 -17.4 1.2 -2.7 2.2 -5.5 2.2 -6.2 0 -0.7 1.1 -2.1 2.5 -3 1.3 -0.9 3.5 -3.2 4.7 -5.3 3.2 -5.1 6.9 -9.1 8.5 -9.1 1.8 0 1.6 1.3 -0.7 4.3 -8.8 11.2 -13.2 34.7 -9.6 51.7 0.9 4.2 1 6.7 0.4 7.1 -0.6 0.4 -1.2 3.3 -1.5 6.5 -0.3 3.3 -0.6 6 -0.7 6.2 -0.2 0.1 -1.3 -1.9 -2.4 -4.5z"/>
  <path d="M327.5 39.7 c-6.6 -5.8 -10.1 -8.2 -14.2 -9.8 -2.1 -0.8 -2.4 -0.7 -1.5 0.4 0.8 1 0.6 1.3 -0.9 1.3 -1 0 -1.9 -0.7 -1.9 -1.4 0 -0.8 -0.6 -1.2 -1.4 -0.9 -0.8 0.3 -1.7 -0.1 -2 -0.9 -0.3 -0.9 -1 -1.3 -1.5 -0.9 -0.6 0.3 -1.4 -0.3 -2 -1.2 -0.6 -1 -1.1 -1.5 -1.1 -1 0 0.4 -0.9 -0.2 -2 -1.3 -1.2 -1.2 -2.5 -1.8 -2.9 -1.5 -0.5 0.2 -4.3 -1.1 -8.4 -3 -9 -4.2 -23.7 -8.3 -32.7 -9.1 -4.1 -0.4 -7 -1.2 -7.7 -2.2 -0.8 -1 -1.3 -1.1 -1.3 -0.4 0 0.7 -0.4 1.2 -1 1.2 -0.5 0 -1 -0.7 -1 -1.5 0 -0.8 -0.9 -1.5 -1.9 -1.5 -2.5 0 -5.1 -1 -5.1 -2 0 -0.4 1.4 -1.3 3.1 -1.9 11.7 -4.1 44 3.9 63.8 15.8 11.3 6.8 24.6 17.9 29.2 24.4 3.1 4.2 1 3.2 -5.6 -2.6z"/>
 </g>
 <g fill="#f0dca2">
  <path d="M13 113.4 c0 -1.4 6.3 -11.9 9.5 -15.9 8.1 -10.1 15.1 -15.7 25.7 -21.1 7.8 -3.9 8.8 -4.1 8.8 -1.4 0 1.6 0.5 1.9 3.3 1.5 3.2 -0.5 3.2 -0.5 0 0.7 -1.8 0.6 -3.3 1.4 -3.3 1.9 0 0.4 -2 1.5 -4.4 2.4 -2.9 1.1 -4.3 2.2 -3.9 3 0.3 1 -0.2 1.2 -1.8 0.8 -1.6 -0.5 -2 -0.3 -1.5 0.6 1 1.6 -2.2 4 -4.6 3.3 -1.3 -0.3 -1.7 0 -1.2 1.1 0.4 1.2 0 1.4 -1.8 1 -1.8 -0.4 -2 -0.3 -0.8 0.6 1.3 1 1.2 1.4 -0.9 3 -1.3 1 -3.1 1.6 -4 1.4 -1.6 -0.4 -4.7 2.4 -14.2 12.5 -2.7 3 -4.9 5 -4.9 4.6z"/>
  <path d="M63 70.6 c0 -0.3 3.3 -1 7.4 -1.6 7.3 -1.2 7.3 -1.2 8 -7.3 0.3 -3.3 0.6 -8.2 0.6 -10.9 0 -8.7 3 -25 5.7 -31 4.2 -9.3 14.2 -16.7 24.8 -18.1 4 -0.6 4 -0.6 0.5 0.5 -4.5 1.4 -4.5 1.5 -3.1 3.1 0.6 0.8 2.1 1.3 3.4 1.2 1.2 -0.1 1.4 0 0.4 0.2 -0.9 0.2 -1.4 0.9 -1.1 1.5 0.5 0.7 0.2 0.8 -0.5 0.3 -1.6 -0.9 -8.1 2.5 -8.1 4.2 0 0.7 -1.1 2 -2.5 2.9 -6.3 4.1 -9.9 15.3 -11 34.7 -0.6 8.6 -1.1 11.7 -2.1 11.7 -0.7 0 -1.4 1.2 -1.6 2.7 -0.2 1.9 -1 2.9 -2.3 3.1 -1.1 0.2 -2.7 0.6 -3.5 0.9 -0.8 0.3 -1.9 0.5 -2.4 0.4 -0.4 -0.1 -1.3 0.2 -2 0.7 -1.1 0.9 -10.6 1.6 -10.6 0.8z"/>
 </g>
</svg>