<?xml version="1.0" encoding="utf-8"?>
<!DOCTYPE svg PUBLIC "-//W3C//DTD SVG 1.1//EN" "http://www.w3.org/Graphics/SVG/1.1/DTD/svg11.dtd">
<svg version="1.1" xmlns="http://www.w3.org/2000/svg" width="170px" height="156px" viewBox="0 0 170 156" preserveAspectRatio="xMidYMid meet">
 <g fill="#ecc86c">
  <path d="M8 155.3 c-5.7 -0.9 -6.9 -1.4 -7.5 -3.3 -0.4 -1.4 4.7 -11.5 17.8 -35.2 10.1 -18.3 25.3 -45.9 33.7 -61.3 29 -53.3 30.9 -56.3 34.9 -55 2.6 0.8 2.1 0 26.4 45 22.9 42.6 47.2 87 52.4 96 1.9 3.3 3.7 7.4 4 9.2 0.9 5.1 -1.3 5.4 -31.8 5.1 -22.3 -0.2 -27.1 -0.6 -28.2 -1.8 -1 -1 -1.7 -4.7 -2 -10.2 -0.5 -8.7 -0.5 -8.8 1.9 -8.8 2.2 0 2.3 0.4 2.6 7.8 l0.3 7.7 15 0.2 c8.3 0.2 19.6 -0.3 25.3 -1 l10.2 -1.2 -17.1 -31 c-9.4 -17 -26.3 -48.1 -37.6 -69 -11.3 -20.9 -21.1 -38.6 -21.8 -39.3 -1.4 -1.6 -4.6 3.8 -33.8 57.3 -10.1 18.7 -24.6 44.9 -32 58.3 l-13.5 24.2 2.9 0 c1.6 0 2.9 0.5 2.9 1 0 0.6 1.1 1 2.5 1 1.4 0 2.5 -0.4 2.5 -1 0 -0.6 2.8 -1 6.5 -1 3.7 0 6.5 0.4 6.5 1 0 2.1 22.7 0.7 25.9 -1.6 0.2 -0.2 0.7 -3.9 1.1 -8.3 0.5 -4.3 1.6 -9.3 2.4 -11 8.7 -16.7 30.6 -20.9 44 -8.4 1.7 1.6 2.4 2.9 1.8 3.1 -0.7 0.2 -1.2 1.5 -1.2 2.8 0 3 -0.7 3 -3.1 0 -4.9 -6.2 -18.1 -8.6 -25.7 -4.7 -8.4 4.3 -12.2 11.2 -12.2 22.1 0 6.1 -0.3 7.4 -2.3 9.4 -2.4 2.4 -2.5 2.4 -26.8 2.4 -13.4 0 -25.5 -0.2 -26.9 -0.5z"/>
 </g>
 <g fill="#fce689">
  <path d="M5.2 152.3 c0.2 -1.2 1.1 -1.7 2.7 -1.5 1.5 0.3 2.1 0 1.6 -0.8 -0.5 -0.8 5.7 -1 24.4 -0.8 l25.1 0.3 0 -7.2 c0 -5.8 0.3 -7.3 1.5 -7.3 1.2 0 1.4 1 1 5.3 -0.3 2.8 -0.7 6.7 -0.9 8.6 -0.4 4.2 0 4.1 -19.5 4.8 -10.3 0.3 -14.1 0.2 -13.7 -0.6 0.5 -0.7 -0.6 -1.1 -3.1 -1 -3 0 -3.4 0.2 -1.8 0.9 1.3 0.6 -1.4 0.9 -7.8 0.9 -8.9 0.1 -9.8 -0.1 -9.5 -1.6z"/>
  <path d="M109.8 153.4 c-0.5 -0.4 -0.8 -4 -0.8 -8.1 0 -4.2 -0.4 -7.3 -1 -7.3 -0.5 0 -1 -0.8 -1 -1.7 0 -2.8 -6.6 -12.8 -8.1 -12.5 -1.1 0.3 -1.1 0.1 -0.2 -0.9 0.6 -0.6 0.9 -1.7 0.6 -2.5 -0.4 -1 0.2 -1.1 2.9 -0.2 6.3 1.9 12.3 14.5 11.6 24.3 l-0.3 4 23.4 0.5 c16.1 0.3 23.6 0.9 23.8 1.6 0.2 0.6 -0.9 1.5 -2.4 1.8 -4.1 1.1 -47.7 1.9 -48.5 1z"/>
  <path d="M62.9 128.7 c-1.3 -0.8 -1.1 -1.4 2 -4.3 4.4 -4 5.7 -3.5 2.9 1.1 -2.4 4.3 -2.9 4.5 -4.9 3.2z"/>
 </g>
</svg>