<?xml version="1.0" encoding="utf-8"?>
<!DOCTYPE svg PUBLIC "-//W3C//DTD SVG 1.1//EN" "http://www.w3.org/Graphics/SVG/1.1/DTD/svg11.dtd">
<svg version="1.1" xmlns="http://www.w3.org/2000/svg" width="187px" height="237px" viewBox="0 0 187 237" preserveAspectRatio="xMidYMid meet">
 <g fill="#9b8353">
  <path d="M6.3 236.3 c-2.4 -0.9 -1.3 -2.3 1.7 -2.3 3.2 0 4 1.4 1.4 2.4 -0.9 0.3 -1.6 0.6 -1.7 0.5 -0.1 0 -0.8 -0.3 -1.4 -0.6z"/>
  <path d="M42.3 236.3 c-2.4 -0.9 -1.3 -2.3 1.7 -2.3 3.2 0 4 1.4 1.4 2.4 -0.9 0.3 -1.6 0.6 -1.7 0.5 -0.1 0 -0.8 -0.3 -1.4 -0.6z"/>
  <path d="M123 234 c-2.8 -2.8 -2.5 -4.2 0.8 -3.8 2.1 0.2 2.8 0.9 3 3.1 0.4 3.2 -1 3.5 -3.8 0.7z"/>
  <path d="M174.2 234.4 c-2.7 -1.9 -3 -5.4 -0.4 -5.4 2.5 0 4.2 1.9 4.2 4.7 0 2.7 -0.8 2.9 -3.8 0.7z"/>
  <path d="M180 233.5 c0 -1.4 0.9 -3 2 -3.7 2 -1.3 2 -2.4 2 -108.5 0 -100.2 0.3 -113.9 2.5 -105 0.3 1.2 0.4 50.3 0.3 109 l-0.3 106.9 -2.4 1.9 c-3.1 2.5 -4.1 2.4 -4.1 -0.6z"/>
  <path d="M1 232.1 c-0.7 -1.3 -1 -31 -1 -89.1 0 -78.6 0.2 -87.5 1.6 -90.6 2.6 -5.5 11.4 -8.9 11.4 -4.4 0 1.4 -0.7 2 -2.4 2 -1.3 0 -2.6 0.7 -3 1.5 -0.3 0.8 -1.2 1.5 -2.1 1.5 -1.3 0 -1.5 9.9 -1.5 90.5 0 57.5 -0.4 90.5 -1 90.5 -0.5 0 -1.4 -0.9 -2 -1.9z"/>
  <path d="M48 201 c0 -32.3 0 -33 2 -33 2 0 2 0.7 2 31.1 0 29.8 -0.4 34.9 -3 34.9 -0.6 0 -1 -12.5 -1 -33z"/>
  <path d="M132 144.8 l-0.1 -89.3 -3.6 -2.7 c-2.5 -1.9 -4.8 -2.8 -7.5 -2.8 -3.1 0 -3.8 -0.3 -3.8 -2 0 -1.7 0.7 -2 4.3 -2 5.7 0 10.8 2.7 12.9 7 1.7 3.3 1.8 9.7 1.8 90.3 0 84.7 -0.2 90.7 -3 90.7 -0.6 0 -1 -32.6 -1 -89.2z"/>
  <path d="M147 232.1 c-0.7 -1.3 -1 -34.7 -1 -101.1 l0 -99.1 2.5 -2.4 c2.9 -3 7.4 -3.2 10.6 -0.6 l2.4 1.9 0.3 90.4 c0.2 49.6 0 91.8 -0.3 93.6 -0.3 1.9 -1.2 3.2 -2 3.2 -1.3 0 -1.5 -12.1 -1.5 -91.8 0 -87 -0.1 -92 -1.8 -93.5 -1.1 -1 -2.6 -1.4 -4 -1 l-2.2 0.5 0 100.9 c0 64.2 -0.4 100.9 -1 100.9 -0.5 0 -1.4 -0.9 -2 -1.9z"/>
  <path d="M36.6 230.8 c-0.3 -1.3 -0.6 -6.2 -0.6 -11 0 -7.2 -0.3 -8.8 -1.5 -8.8 -0.8 0 -1.5 -0.7 -1.5 -1.5 0 -1 1.1 -1.5 3.5 -1.5 l3.5 0 0 12.5 c0 10 -0.3 12.5 -1.4 12.5 -0.7 0 -1.6 -1 -2 -2.2z"/>
  <path d="M12 219 l0 -11 3.5 0 c2.4 0 3.5 0.5 3.5 1.5 0 0.8 -0.6 1.5 -1.4 1.5 -1.7 0 -2.6 4.3 -1.9 8.7 0.8 4.6 -0.5 10.3 -2.2 10.3 -1.2 0 -1.5 -2 -1.5 -11z"/>
  <path d="M12.7 199.3 c-0.4 -0.3 -0.7 -2.4 -0.7 -4.5 0 -4.4 2.4 -5.3 3.4 -1.3 0.6 2.5 0.8 2.5 11.1 2.5 8.7 0 10.5 -0.3 10.5 -1.5 0 -0.8 0.7 -1.5 1.5 -1.5 1 0 1.5 1.1 1.5 3.5 l0 3.5 -13.3 0 c-7.4 0 -13.7 -0.3 -14 -0.7z"/>
  <path d="M12 178.5 c0 -3.3 0.2 -3.5 3.5 -3.5 3.9 0 5 2.4 1.5 3.3 -1.1 0.3 -2 1.2 -2 2.1 0 0.9 -0.7 1.6 -1.5 1.6 -1 0 -1.5 -1.1 -1.5 -3.5z"/>
  <path d="M36.7 180 c-0.4 -1.6 -1.4 -2 -4.6 -2 -3.4 0 -4.1 -0.3 -4.1 -2 0 -1.6 0.7 -2 3.8 -2 6.7 0 8.2 0.9 8.2 4.6 0 3.8 -2.4 4.8 -3.3 1.4z"/>
  <path d="M12.7 166.4 c-0.4 -0.4 -0.7 -5.8 -0.7 -12.1 l0 -11.3 3 0 c2.8 0 4.2 1.4 2.1 2.2 -0.5 0.2 -1.1 4.1 -1.2 8.8 l-0.4 8.5 10.4 0.3 c9.6 0.3 10.3 0.1 10.8 -1.8 0.3 -1.1 1.2 -2 2 -2 1 0 1.3 1 1.1 3.8 l-0.3 3.7 -13.1 0.3 c-7.1 0.1 -13.3 -0.1 -13.7 -0.4z"/>
  <path d="M36.6 147.5 c-0.4 -1.4 -1.3 -2.5 -2.1 -2.5 -0.8 0 -1.5 -0.7 -1.5 -1.5 0 -1 1.1 -1.5 3.5 -1.5 3.4 0 3.5 0.1 3.5 4 0 4.6 -2.4 5.6 -3.4 1.5z"/>
  <path d="M48 141.6 c0 -1.3 -1.2 -3.5 -2.6 -4.9 -2.6 -2.6 -2.9 -2.7 -17.8 -2.9 l-15.1 -0.3 -0.3 -10.7 c-0.2 -8.8 0 -10.8 1.1 -10.8 1.9 0 2.7 3.1 2.7 11.2 l0 6.7 15.1 0.3 15.1 0.3 2.9 3.3 c3.6 4 4.2 10.2 0.9 10.2 -1.4 0 -2 -0.7 -2 -2.4z"/>
  <path d="M12 97 l0 -11 3.5 0 c2.4 0 3.5 0.5 3.5 1.5 0 0.8 -0.7 1.5 -1.5 1.5 -0.9 0 -1.5 1 -1.6 2.8 -0.1 1.5 -0.2 5 -0.4 7.7 -0.3 7.9 -0.4 8.5 -2 8.5 -1.2 0 -1.5 -1.9 -1.5 -11z"/>
  <path d="M44 82 c0 -5.4 1.4 -6.5 3.2 -2.5 0.8 1.9 0.8 3.1 0 5 -1.8 4 -3.2 2.9 -3.2 -2.5z"/>
  <path d="M12 68 l0 -10 3.5 0 c3.7 0 5 2.4 1.7 3.2 -1.3 0.4 -1.7 1.3 -1.6 3.4 0.1 1.6 0.3 4.6 0.3 6.7 0.1 2.6 0.5 3.7 1.6 3.7 0.8 0 1.5 0.7 1.5 1.5 0 1 -1.1 1.5 -3.5 1.5 l-3.5 0 0 -10z"/>
  <path d="M23.1 33.4 c-3.2 -2.7 -3.8 -5.2 -2.1 -8.5 1.8 -3.2 3 -2.1 3 2.6 l0 4.5 45 0 c43.4 0 45 -0.1 45 -1.9 0 -1 -0.7 -2.4 -1.5 -3.1 -1.4 -1.2 -2.2 -6 -0.9 -6 1.7 0 4.6 2.4 5.4 4.5 1.1 2.9 0.2 6.5 -1.6 6.5 -0.8 0 -1.4 0.6 -1.4 1.4 0 0.7 -1 1.6 -2.2 2 -1.3 0.3 -21.1 0.6 -44 0.6 l-41.6 0 -3.1 -2.6z"/>
  <path d="M172 5.1 c0 -4.6 8.2 -6.7 11.5 -3.1 1.8 2 1.7 2 -2.2 2 -2.7 0 -4.3 0.5 -4.7 1.5 -0.8 2.3 -4.6 1.9 -4.6 -0.4z"/>
 </g>
 <g fill="#ecc86c">
  <path d="M2.7 234.2 c-1.5 -1.7 -1.7 -7.1 -1.7 -56.5 l0 -54.7 4.8 0 c5.1 0 8.8 2.2 9.4 5.5 0.3 1.9 1.2 2 15.5 2.3 14.5 0.2 15.2 0.3 17.6 2.7 1.3 1.4 2.7 4.2 3 6.2 0.4 2.1 0.4 23.8 0 48.3 -0.6 49.5 -0.4 48 -7.3 48 -6.1 0 -7 -1.9 -7 -14.3 l0 -10.7 -11 0 -11 0 0 10.8 c0 9.3 -0.3 11.1 -1.8 12.5 -2.5 2.3 -8.5 2.2 -10.5 -0.1z m34.3 -46.6 c0 -11 0.8 -10.4 -12.7 -9.8 l-9.3 0.4 0 8.7 c0 4.8 0.3 9.1 0.7 9.4 0.3 0.4 5.3 0.7 11 0.7 l10.3 0 0 -9.4z m-0.2 -33.4 l0.3 -9.3 -10.8 0.3 -10.8 0.3 -0.3 7.9 c-0.2 4.4 -0.1 8.5 0.2 9.3 0.4 1.1 2.8 1.3 10.8 1.1 l10.3 -0.3 0.3 -9.3z"/>
  <path d="M123.2 233.7 l-2.2 -2.3 0 -78.2 c0 -77.5 0 -78.2 2 -78.2 1.9 0 2 0.7 2 17 l0 17 3.1 0 c2.5 0 3.3 0.6 4.7 3.7 1.5 3.4 1.7 9.7 2 61.7 0.3 53.2 0.1 58 -1.4 59.7 -2.4 2.7 -7.5 2.5 -10.2 -0.4z"/>
  <path d="M148.7 234.2 c-1.6 -1.7 -1.7 -8.2 -1.7 -73.4 0 -78.3 -0.4 -72.8 5.6 -72.8 1.5 0 2.4 -0.6 2.4 -1.5 0 -1 1 -1.5 3 -1.5 l3 0 0 73.8 c0 70.3 -0.1 74 -1.8 75.5 -2.5 2.3 -8.5 2.2 -10.5 -0.1z"/>
  <path d="M174.2 233.7 l-2.2 -2.3 0 -60.2 c0 -52.8 0.2 -60.2 1.5 -60.2 0.8 0 1.5 -0.4 1.5 -1 0 -0.5 1.7 -1 3.8 -1 7.6 0 7.2 -3.6 7.2 63.2 l0 59.5 -2.3 2.1 c-3 2.8 -6.8 2.8 -9.5 -0.1z"/>
 </g>
 <g fill="#fdd788">
  <path d="M1 93.7 l0 -41.3 3.1 -3 3 -2.9 52.2 -0.3 c28.7 -0.2 55.9 0 60.5 0.3 7.4 0.6 8.8 1 11.8 3.7 l3.4 3 0 37.9 c0 33 -0.2 37.9 -1.5 37.9 -0.8 0 -1.5 -0.9 -1.5 -2 0 -3.7 -2.1 -11.8 -3.6 -13.6 -1.4 -1.8 -1.5 -1.8 -0.9 0.2 0.4 1.4 0 2.4 -1 2.8 -0.8 0.3 -1.5 0.1 -1.5 -0.4 0 -2.5 -1.9 -0.6 -2.3 2.3 -0.2 1.7 -0.5 -4.7 -0.5 -14.3 -0.1 -9.6 -0.5 -23.2 -0.9 -30.2 l-0.6 -12.8 -52.9 0 -52.8 0 0 7 0 7 14.3 0 c16.2 0 17.7 0.6 17.7 7.2 0 6.1 -1.7 6.8 -17.8 6.8 l-14.2 0 0 19.9 c0 21.5 -0.3 22.7 -5.1 19 -2.4 -1.9 -6.5 -2.6 -5.5 -1 0.6 0.9 -2 8.1 -2.9 8.1 -0.3 0 -0.5 -18.6 -0.5 -41.3z"/>
  <path d="M21 132 c-5.1 -0.5 -3.8 -0.7 6.5 -0.7 9.3 -0.1 11.9 0.2 9 0.8 -4.4 0.9 -5.9 0.9 -15.5 -0.1z"/>
  <path d="M172.8 126.4 c-0.5 -0.4 -0.8 -28 -0.8 -61.3 0.1 -50.3 0.3 -60.9 1.5 -62.4 1.9 -2.5 7.8 -2.7 10.5 -0.2 2 1.8 2 2.7 2 58.7 0 49.8 -0.2 56.8 -1.5 56.8 -0.8 0 -1.5 -0.6 -1.5 -1.3 0 -0.8 -0.9 -2.2 -2 -3.2 -2 -1.8 -2.1 -1.8 -3.5 0.1 -0.8 1 -1.5 1.5 -1.6 0.9 -0.1 -0.5 -0.6 2.1 -1.3 5.8 -0.6 3.8 -1.4 6.5 -1.8 6.1z"/>
  <path d="M147.1 63.8 l-0.1 -33.7 3 -1.6 c3.8 -2 5.2 -1.9 8.4 0.6 l2.6 2 0 28.5 c0 24.6 -0.2 28.4 -1.5 28.4 -0.8 0 -1.5 0.9 -1.5 2.1 0 1.1 -0.4 1.7 -1 1.4 -0.6 -0.4 -2.8 -0.4 -5 0 -3.2 0.5 -4 1.1 -4.3 3.3 -0.2 1.5 -0.5 -12.5 -0.6 -31z"/>
  <path d="M22.7 33.2 c-1 -1 -1.7 -3.5 -1.7 -5.5 0 -6.8 -0.9 -6.7 48 -6.7 l43.7 0 2.1 2.3 c2.7 2.9 2.9 7.8 0.4 10 -1.7 1.5 -6.4 1.7 -46.4 1.7 -41.8 0 -44.6 -0.1 -46.1 -1.8z"/>
 </g>
</svg>