<?xml version="1.0" encoding="utf-8"?>
<!DOCTYPE svg PUBLIC "-//W3C//DTD SVG 1.0//EN" "http://www.w3.org/TR/2001/REC-SVG-20010904/DTD/svg10.dtd">
<svg version="1.0" xmlns="http://www.w3.org/2000/svg" width="25.4mm" height="25.4mm" viewBox="0 0 25.4 25.4" preserveAspectRatio="xMidYMid meet">
 <g fill="#ecc86c">
  <path d="M9.750 20.929 c-0.251 -0.278 -0.278 -0.688 -0.093 -1.270 0.317 -1.019 0.648 -2.077 0.926 -2.990 0.159 -0.542 0.344 -1.111 0.397 -1.257 0.053 -0.146 0.159 -0.476 0.238 -0.728 0.198 -0.675 0.952 -3.122 1.217 -3.969 0.119 -0.397 0.357 -1.177 0.529 -1.720 0.159 -0.542 0.344 -1.111 0.397 -1.257 0.053 -0.146 0.238 -0.714 0.397 -1.257 0.556 -1.931 0.741 -2.249 1.323 -2.249 0.675 0 0.952 0.622 0.661 1.508 -0.278 0.900 -0.635 2.051 -0.926 2.990 -0.172 0.542 -0.463 1.495 -0.661 2.117 -0.198 0.622 -0.489 1.574 -0.661 2.117 -0.159 0.542 -0.410 1.323 -0.529 1.720 -0.119 0.397 -0.370 1.177 -0.529 1.720 -0.172 0.542 -0.476 1.535 -0.688 2.183 -0.198 0.661 -0.437 1.402 -0.516 1.654 -0.079 0.251 -0.238 0.569 -0.357 0.701 -0.265 0.291 -0.847 0.291 -1.124 -0.013z"/>
  <path d="M6.403 18.190 c-0.688 -0.529 -0.900 -0.952 -0.714 -1.389 0.198 -0.476 0.794 -0.648 1.230 -0.357 0.952 0.635 1.283 1.402 0.781 1.852 -0.344 0.317 -0.820 0.278 -1.296 -0.106z"/>
  <path d="M17.687 18.283 c-0.132 -0.132 -0.225 -0.397 -0.225 -0.582 0 -0.344 0.384 -0.741 3.744 -3.942 0.556 -0.529 1.019 -1.019 1.019 -1.085 0 -0.053 -0.238 -0.317 -0.529 -0.582 -0.437 -0.397 -0.529 -0.569 -0.529 -0.966 0 -0.595 0.185 -0.807 0.728 -0.807 0.291 0 0.582 0.185 1.138 0.701 0.873 0.820 1.045 1.111 1.045 1.746 0 0.529 -0.212 0.781 -3.797 4.207 -1.720 1.640 -2.117 1.839 -2.593 1.310z"/>
  <path d="M4.035 15.915 c-1.468 -1.336 -2.447 -2.302 -2.566 -2.540 -0.079 -0.146 -0.146 -0.476 -0.146 -0.741 0 -0.529 0.079 -0.609 3.664 -4.075 1.852 -1.786 2.236 -1.984 2.725 -1.442 0.569 0.622 0.370 0.873 -3.638 4.657 -0.503 0.463 -0.900 0.886 -0.900 0.939 0 0.053 0.397 0.476 0.886 0.939 0.489 0.463 1.058 0.992 1.257 1.191 0.450 0.423 0.476 0.926 0.079 1.296 -0.410 0.384 -0.754 0.331 -1.363 -0.225z"/>
  <path d="M19.751 10.147 c-0.159 -0.093 -0.741 -0.595 -1.296 -1.138 -1.058 -1.045 -1.230 -1.468 -0.754 -1.905 0.489 -0.450 0.873 -0.291 2.064 0.847 1.283 1.217 1.429 1.601 0.794 2.090 -0.410 0.317 -0.423 0.317 -0.807 0.106z"/>
 </g>
</svg>