<?xml version="1.0" encoding="utf-8"?>
<!DOCTYPE svg PUBLIC "-//W3C//DTD SVG 1.0//EN" "http://www.w3.org/TR/2001/REC-SVG-20010904/DTD/svg10.dtd">
<svg version="1.0" xmlns="http://www.w3.org/2000/svg" width="25.4mm" height="25.4mm" viewBox="0 0 25.4 25.4" preserveAspectRatio="xMidYMid meet">
 <g fill="#ecc86c">
  <path d="M10.782 22.675 c-0.212 -0.026 -0.873 -0.119 -1.455 -0.198 -1.931 -0.251 -4.088 -1.005 -4.802 -1.693 -0.794 -0.767 -0.754 -0.357 -0.794 -8.030 -0.026 -6.906 -0.026 -7.064 0.251 -7.514 0.728 -1.244 2.580 -1.958 2.977 -1.151 0.238 0.476 0.040 0.833 -0.754 1.270 -0.992 0.569 -0.992 0.913 0.013 1.416 2.950 1.495 9.842 1.535 12.832 0.066 0.714 -0.357 0.860 -0.476 0.860 -0.754 0 -0.278 -0.146 -0.397 -0.847 -0.754 -0.463 -0.225 -1.482 -0.556 -2.249 -0.714 -1.230 -0.278 -1.773 -0.317 -4.366 -0.317 -2.738 -0.013 -2.963 -0.026 -3.135 -0.265 -0.265 -0.357 -0.225 -0.556 0.119 -0.913 0.278 -0.278 0.503 -0.331 1.627 -0.410 2.619 -0.198 5.755 0.146 7.832 0.860 1.336 0.450 2.064 0.939 2.487 1.654 0.317 0.556 0.317 0.556 0.317 5.861 0 3.135 -0.053 5.437 -0.132 5.636 -0.185 0.516 -0.701 0.701 -1.124 0.423 -0.331 -0.212 -0.331 -0.212 -0.331 -4.577 0 -2.408 -0.013 -4.366 -0.040 -4.366 -0.026 0 -0.516 0.172 -1.098 0.384 -1.720 0.622 -3.479 0.860 -6.271 0.860 -2.725 0 -4.339 -0.212 -5.966 -0.781 -0.542 -0.198 -1.085 -0.384 -1.204 -0.423 -0.212 -0.066 -0.238 0.040 -0.238 0.926 0 1.442 0.106 1.627 1.151 2.103 2.289 1.032 6.707 1.323 10.504 0.688 0.833 -0.146 1.363 0.688 0.794 1.257 -0.397 0.397 -2.156 0.609 -5.040 0.609 -2.897 0 -4.458 -0.212 -6.271 -0.873 -0.582 -0.212 -1.072 -0.384 -1.098 -0.384 -0.026 0 -0.040 0.503 -0.040 1.111 0 1.349 0.172 1.614 1.349 2.117 1.918 0.794 5.014 1.151 7.858 0.900 0.979 -0.093 2.090 -0.225 2.447 -0.304 0.370 -0.079 0.794 -0.106 0.966 -0.066 0.635 0.159 0.675 1.138 0.053 1.402 -0.529 0.212 -1.587 0.384 -3.373 0.529 -2.831 0.238 -6.429 -0.159 -8.348 -0.913 -0.384 -0.159 -0.754 -0.278 -0.820 -0.278 -0.079 0 -0.132 0.489 -0.132 1.124 0 1.058 0.026 1.164 0.344 1.455 0.450 0.410 1.521 0.820 3.096 1.164 1.865 0.410 6.099 0.397 8.057 -0.013 1.773 -0.384 3.003 -0.939 3.215 -1.442 0.238 -0.556 0.516 -0.833 0.833 -0.833 0.410 0 0.728 0.410 0.728 0.926 0 1.826 -3.307 3.122 -8.268 3.241 -1.164 0.026 -2.289 0.026 -2.514 -0.013z"/>
 </g>
</svg>