<svg version="1.0" xmlns="http://www.w3.org/2000/svg" viewBox="0 0 63.5 63.5" preserveAspectRatio="xMidYMid meet">
 <g fill="none" stroke="#ecc86c" stroke-width="2">
  <path d="M19.738 60.193 c-16.616 -7.250 -23.283 -27.411 -14.182 -42.995 10.001 -17.145 33.443 -20.214 47.493 -6.218 5.874 5.847 8.943 13.176 8.943 21.431 0 11.880 -6.720 22.410 -17.515 27.464 -2.487 1.164 -4.313 1.535 -4.683 0.952 -0.132 -0.212 -0.291 -3.043 -0.370 -6.324 -0.132 -5.900 -0.132 -5.953 -0.847 -7.250 -0.423 -0.714 -0.741 -1.323 -0.741 -1.376 0 -0.053 0.317 -0.106 0.741 -0.106 1.164 0 4.445 -1.005 6.191 -1.879 3.281 -1.640 5.398 -4.736 6.191 -8.969 0.847 -4.392 0.132 -8.599 -1.852 -11.192 -0.714 -0.952 -0.820 -1.244 -0.609 -1.799 0.609 -1.587 0.185 -6.244 -0.688 -7.329 -0.582 -0.741 -3.995 0.238 -6.853 1.958 l-1.508 0.926 -2.328 -0.450 c-2.672 -0.503 -9.287 -0.423 -11.589 0.159 -1.296 0.317 -1.349 0.291 -2.884 -0.635 -2.037 -1.244 -4.128 -2.011 -5.636 -2.090 -1.191 -0.053 -1.217 -0.026 -1.587 1.005 -0.556 1.535 -0.741 4.392 -0.370 5.794 0.291 1.191 0.265 1.270 -0.635 2.619 -1.402 2.064 -1.984 4.233 -1.984 7.435 0 4.842 1.270 8.361 3.916 10.769 2.117 1.931 6.244 3.651 8.837 3.678 l0.714 0 -0.529 0.926 c-0.317 0.529 -0.714 1.429 -0.900 2.037 -0.265 0.926 -0.476 1.164 -1.349 1.455 -0.609 0.238 -1.693 0.344 -2.646 0.291 -2.090 -0.132 -3.413 -0.979 -4.868 -3.122 -1.640 -2.408 -3.757 -3.545 -5.662 -3.069 -1.032 0.265 -0.847 0.741 0.847 2.223 1.164 1.005 1.852 1.931 2.831 3.757 1.905 3.598 3.334 4.339 7.885 4.180 l2.566 -0.079 0 3.069 c0 2.011 -0.106 3.149 -0.317 3.360 -0.529 0.529 -1.852 0.344 -4.022 -0.609z"/>
 </g>
</svg>