<?xml version="1.0" encoding="utf-8"?>
<!DOCTYPE svg PUBLIC "-//W3C//DTD SVG 1.1//EN" "http://www.w3.org/Graphics/SVG/1.1/DTD/svg11.dtd">
<svg version="1.1" xmlns="http://www.w3.org/2000/svg" width="172px" height="160px" viewBox="0 0 172 160" preserveAspectRatio="xMidYMid meet">
 <g fill="#784c16">
  <path d="M6 157.1 c0 -0.6 -1.2 -1.6 -2.7 -2.3 -1.6 -0.7 -2.9 -2.3 -3.1 -3.5 -0.2 -1.3 5.5 -12.5 14.6 -29 8.2 -14.7 24.3 -43.9 35.7 -64.8 28.3 -52 31 -56.3 34.2 -57.1 3.5 -0.9 5.4 1.4 12.8 15.3 8.5 15.7 40.4 74.5 53.5 98.3 20.9 38.2 20.1 36.6 19.4 39.5 -0.4 1.5 -1.7 3 -3.1 3.6 -3.3 1.2 -53.3 1.2 -53.3 -0.1 0 -0.5 -1.1 -1.2 -2.5 -1.6 -3.6 -0.9 -4.5 -3.2 -4.5 -11.9 0 -9 -1.5 -12.9 -6.9 -17.8 -3.3 -3 -4.5 -3.4 -9.8 -3.6 -6.7 -0.2 -10 0.8 -15.4 4.5 -6.2 4.3 -9.3 11.9 -10.3 24.8 -0.5 6.6 -0.7 6.6 -31.3 6.6 -16.5 0 -27.3 -0.4 -27.3 -0.9z m51.3 -15.3 c0.7 -9.2 2.6 -13.7 8.4 -19.9 8.6 -9.2 20.9 -11.4 32.1 -5.8 10.4 5.1 15.3 12.8 16 25.2 l0.5 7.7 24.3 0 24.3 0 -13.1 -23.7 c-7.2 -13.1 -15.9 -29 -19.4 -35.3 -3.5 -6.3 -14.6 -26.7 -24.6 -45.3 -10 -18.6 -18.4 -33.2 -18.7 -32.5 -0.2 0.7 -1.2 2.2 -2.1 3.3 -1 1.1 -2.7 3.6 -3.7 5.5 -1.1 1.9 -6.5 11.6 -12 21.5 -5.5 9.9 -12 21.8 -14.5 26.5 -2.5 4.7 -8 14.8 -12.3 22.5 -16.3 29.6 -29.5 54.3 -29.5 55.3 0 0.6 -1.5 1.3 -3.2 1.5 -1.8 0.2 8 0.5 21.8 0.5 l25.1 0.2 0.6 -7.2z"/>
 </g>
 <g fill="#debe66">
  <path d="M6 155.3 c-4.2 -0.5 -6 -1.9 -6 -4.4 0 -1.1 6.7 -13.9 14.9 -28.7 8.2 -14.7 24.2 -43.8 35.6 -64.7 28.3 -52 31 -56.3 34.2 -57.1 3.5 -0.9 5.4 1.4 12.8 15.3 9.8 18.3 42.6 78.6 55.4 101.8 18.8 34.1 18.9 34.2 16.8 36.2 -1.6 1.6 -4.5 1.8 -30.7 1.8 -22.3 0 -29.2 -0.3 -30.2 -1.3 -0.8 -0.8 -1.5 -5 -1.8 -11.1 -0.5 -8.7 -0.8 -10.2 -3.3 -13.4 -5.2 -6.8 -9.2 -9.1 -16.7 -9.5 -5.3 -0.3 -7.5 0 -10.6 1.6 -8.4 4.3 -12.4 11.3 -12.4 21.6 0 7.5 -1.3 11.2 -4.4 12 -2.4 0.6 -48.1 0.5 -53.6 -0.1z m51.3 -13.5 c0.7 -9.2 2.6 -13.7 8.4 -19.9 8.6 -9.2 20.9 -11.4 32.1 -5.8 10.4 5.1 15.3 12.8 16 25.2 l0.5 7.7 24.3 0 24.3 0 -13.1 -23.7 c-7.2 -13.1 -15.5 -28.3 -18.6 -33.8 -13.8 -25 -43.2 -79.8 -43.2 -80.5 0 -0.4 -0.6 -1.3 -1.4 -1.9 -1.6 -1.4 -5.1 4.5 -31.1 52.4 -19.1 35 -45 81.8 -47.2 85.1 l-1.5 2.4 24.9 0 25 0 0.6 -7.2z"/>
 </g>
 <g fill="#f4e392">
  <path d="M6 155.3 c-4.2 -0.6 -6 -1.9 -6 -4.4 0 -1.1 6.7 -13.9 14.9 -28.7 8.2 -14.7 24.2 -43.8 35.6 -64.7 28.3 -52 31 -56.3 34.2 -57.1 3.5 -0.9 5.4 1.4 12.8 15.3 3.2 5.9 11.2 20.7 17.8 32.8 6.6 12.1 12.2 23.4 12.4 25 0.3 1.7 1.5 3.9 2.8 5 1.2 1.1 3.6 4.5 5.2 7.5 1.6 3 8.6 15.9 15.6 28.7 7 12.8 13 24.6 13.3 26.3 0.4 1.7 1.4 3.5 2.4 4 0.9 0.5 2.3 2.3 3 4 1.1 2.7 1.1 3.4 -0.4 4.8 -1.5 1.5 -5 1.7 -29 2 -16.8 0.2 -28.3 -0.1 -29.9 -0.7 -2.6 -1 -2.7 -1.4 -2.7 -7.6 0 -3.7 -0.5 -8.6 -1.1 -11 -1.3 -5.3 -7.3 -12.5 -12.3 -14.9 -4.7 -2.2 -13.7 -2.1 -18.4 0.3 -8.3 4.3 -12.1 11.2 -12.9 23.2 -0.3 4.3 -0.9 8.3 -1.4 9.1 -0.7 1 -6.3 1.3 -26.6 1.4 -14.2 0.1 -27.4 -0.1 -29.3 -0.3z m42.6 -5.9 l8.1 -0.7 0.6 -7.1 c0.7 -9 2.6 -13.6 8.4 -19.7 8.6 -9.2 20.9 -11.4 32.1 -5.8 10.4 5.1 15.3 12.8 16 25.2 l0.5 7.7 24.3 0 24.3 0 -13.1 -23.7 c-7.2 -13.1 -15.5 -28.3 -18.6 -33.8 -13.8 -25 -43.2 -79.8 -43.2 -80.5 0 -0.4 -0.6 -1.3 -1.4 -1.9 -1.6 -1.4 -5.1 4.5 -31.1 52.4 -18.8 34.5 -45 81.7 -47.1 85 -1.2 1.8 -1.2 2.4 -0.2 2.8 1.9 0.8 30.9 0.8 40.4 0.1z"/>
 </g>
</svg>