<?xml version="1.0" encoding="utf-8"?>
<!DOCTYPE svg PUBLIC "-//W3C//DTD SVG 1.0//EN" "http://www.w3.org/TR/2001/REC-SVG-20010904/DTD/svg10.dtd">
<svg version="1.0" xmlns="http://www.w3.org/2000/svg" width="25.4mm" height="25.4mm" viewBox="0 0 25.4 25.4" preserveAspectRatio="xMidYMid meet">
 <g fill="#ECC86C">
  <path d="M3.387 22.463 c-1.032 -0.397 -1.270 -1.429 -1.270 -5.530 0 -2.910 0.079 -3.704 0.397 -3.969 0.609 -0.503 1.191 0.132 1.191 1.349 l0 1.032 3.651 0 c3.307 0 3.678 -0.053 4.101 -0.529 0.265 -0.317 0.767 -0.529 1.244 -0.529 0.476 0 0.979 0.212 1.244 0.529 0.423 0.476 0.794 0.529 4.101 0.529 l3.651 0 0 -3.704 0 -3.704 -8.996 0 -8.996 0 0 1.032 c0 1.217 -0.582 1.852 -1.191 1.349 -0.476 -0.397 -0.503 -1.455 -0.106 -2.593 0.344 -1.032 1.296 -1.376 3.704 -1.376 1.587 0 1.826 -0.053 1.826 -0.503 0 -1.111 0.582 -2.117 1.376 -2.381 1.058 -0.370 5.715 -0.370 6.773 0 0.794 0.265 1.376 1.270 1.376 2.381 0 0.450 0.238 0.503 1.826 0.503 2.408 0 3.360 0.344 3.704 1.376 0.397 1.164 0.370 8.493 -0.026 8.890 -0.212 0.212 -1.587 0.317 -4.445 0.317 -3.784 0 -4.154 0.053 -4.577 0.529 -0.265 0.317 -0.767 0.529 -1.244 0.529 -0.476 0 -0.979 -0.212 -1.244 -0.529 -0.423 -0.476 -0.794 -0.529 -4.101 -0.529 l-3.651 0 0 2.117 0 2.117 8.996 0 8.996 0 0 -0.767 c0 -1.111 0.265 -1.614 0.820 -1.614 0.661 0 0.926 1.111 0.529 2.381 -0.238 0.767 -0.503 1.085 -1.138 1.296 -1.058 0.370 -17.515 0.370 -18.521 0z m12.488 -16.907 l0 -0.794 -3.175 0 -3.175 0 0 0.794 0 0.794 3.175 0 3.175 0 0 -0.794z"/>
 </g>
</svg>