<svg xmlns="http://www.w3.org/2000/svg" x="0px" y="0px" viewBox="0 0 48 48" stroke="#ECC86C" stroke-width="1">
<path fill="none" stroke-linecap="round" stroke-linejoin="round" d="M5.5,18.7v5.6v12.2c0,1.7,1.3,3,3,3h29"></path><path fill="none" stroke-linecap="round" stroke-linejoin="round" d="M40.5,16.5c0-1.7-1.3-3-3-3h-15l-4.9-4.1c-0.7-0.6-1.6-0.9-2.6-0.9H8.5c-1.7,0-3,1.3-3,3V13"></path><path fill="none" stroke-linecap="round" stroke-linejoin="round" stroke-miterlimit="10" d="M16.4,39.5h20.9c1.3,0,2.5-0.8,3-2.1l5.3-13.1c0.5-1.4-0.5-2.9-2-2.9H16.9c-1.3,0-2.5,0.8-3,2.1l-0.7,2"></path>
</svg>