<?xml version="1.0" encoding="utf-8"?>
<!DOCTYPE svg PUBLIC "-//W3C//DTD SVG 1.1//EN" "http://www.w3.org/Graphics/SVG/1.1/DTD/svg11.dtd">
<svg version="1.1" xmlns="http://www.w3.org/2000/svg" width="775px" height="689px" viewBox="0 0 775 689" preserveAspectRatio="xMidYMid meet">
 <g fill="#977d51">
  <path d="M59.2 687.9 c-13.2 -1.9 -25.7 -8.1 -36.7 -18.2 -6.6 -6 -10.5 -11.2 -10.5 -14.1 0 -1.2 1 -1.6 4.4 -1.6 6 0 11.8 2.2 16.1 6.2 5.4 4.9 11 8.4 17.3 11 l5.7 2.3 329.3 0.3 c364.4 0.2 334.7 0.8 347.6 -6.1 7 -3.7 16.3 -12.6 20.2 -19.3 3.3 -5.8 4 -6.4 7.8 -6.4 3 0 7.6 3.9 7.6 6.5 0 2.9 -7.5 14.1 -13.4 19.9 -10.1 9.9 -23.2 16.6 -37.5 19.2 -6.3 1.1 -63.5 1.3 -329.6 1.2 -184.5 0 -324.7 -0.4 -328.3 -0.9z"/>
  <path d="M11 611 c0 -14.3 0.1 -15 2 -15 1.9 0 2 0.7 2 15 0 14.3 -0.1 15 -2 15 -1.9 0 -2 -0.7 -2 -15z"/>
  <path d="M772 457 c0 -148.7 0.2 -168 1.5 -168 1.3 0 1.5 19.2 1.5 166.4 0 91.5 -0.3 167.1 -0.6 168 -0.3 0.9 -1 1.6 -1.5 1.6 -0.5 0 -0.9 -70.1 -0.9 -168z"/>
  <path d="M760.6 519.8 c-0.3 -1.3 -0.6 -23.3 -0.6 -49 0 -46.1 0 -46.8 2 -46.8 2 0 2 0.7 2 49 0 41.1 -0.2 49 -1.4 49 -0.7 0 -1.6 -1 -2 -2.2z"/>
  <path d="M58 214 c0 -2 0.4 -2.1 38.7 -1.8 36 0.3 38.8 0.4 39.1 2.1 0.3 1.6 -2.1 1.7 -38.7 1.7 -38.6 0 -39.1 0 -39.1 -2z"/>
  <path d="M666 214 c0 -2 0.7 -2 47 -2 41.1 0 47 -0.2 47 -1.5 0 -0.8 0.7 -1.5 1.5 -1.5 1 0 1.5 1.1 1.5 3.5 l0 3.5 -48.5 0 c-47.8 0 -48.5 0 -48.5 -2z"/>
  <path d="M0.5 211.8 c-0.3 -1.8 -0.4 -35.9 -0.3 -75.8 0.3 -68.1 0.4 -72.5 2.1 -72.8 1.6 -0.3 1.7 3.8 1.7 75.7 0 65.9 -0.2 76.1 -1.5 76.1 -0.8 0 -1.6 -1.3 -2 -3.2z"/>
  <path d="M524 160.5 l0 -36.5 -3.3 0 c-1.8 0 -3.8 -0.5 -4.5 -1.2 -0.9 -0.9 -1.2 -7 -1.2 -21.5 0 -17.4 -0.2 -20.3 -1.5 -20.3 -0.8 0 -1.5 -0.9 -1.5 -2 0 -2 0.7 -2 100 -2 l100 0 0 2.3 0 2.2 -92 -0.3 -92 -0.2 0 58 c0 57.3 0 58 -2 58 -2 0 -2 -0.7 -2 -36.5z"/>
  <path d="M249.8 124.6 c-1.6 -1.2 -1.8 -3.5 -1.8 -23 0 -13.7 -0.4 -21.6 -1 -21.6 -0.5 0 -1 -0.4 -1 -1 0 -0.6 3.5 -1 8.5 -1 6.9 0 8.5 0.3 8.5 1.5 0 0.8 -0.7 1.5 -1.5 1.5 -1.3 0 -1.5 3.2 -1.5 22.5 l0 22.5 -4.2 0 c-2.4 0 -5.1 -0.7 -6 -1.4z"/>
  <path d="M88 68 c0 -2 0.7 -2 80 -2 l80 0 0 -25.5 c0 -16.3 -0.4 -25.5 -1 -25.5 -0.5 0 -1 -0.7 -1 -1.5 0 -1.2 1.6 -1.5 8.5 -1.5 6.9 0 8.5 0.3 8.5 1.5 0 0.8 -0.7 1.5 -1.5 1.5 -1.3 0 -1.5 3.5 -1.5 25.6 0 24.7 0.1 25.6 2 26.1 1.1 0.3 2 1.2 2 1.9 0 1.2 -13.7 1.4 -88 1.4 -87.3 0 -88 0 -88 -2z"/>
  <path d="M388 68 c0 -1.8 0.7 -2 7.8 -2 9 0 12.2 0.7 12.2 2.6 0 1.1 -2.2 1.4 -10 1.4 -9.3 0 -10 -0.1 -10 -2z"/>
  <path d="M413.2 68.3 c0.3 -1.7 2.1 -1.8 21.3 -1.8 19.2 0 21 0.1 21.3 1.8 0.3 1.6 -1.2 1.7 -21.3 1.7 -20.1 0 -21.6 -0.1 -21.3 -1.7z"/>
  <path d="M511 68.6 c0 -0.7 0.9 -1.6 2 -1.9 1.9 -0.5 2 -1.4 2 -26 0 -18.7 -0.3 -25.6 -1.2 -25.9 -0.6 -0.2 -0.8 -1 -0.4 -1.6 0.5 -0.8 3.6 -1.2 8.7 -1.2 6.4 0 7.9 0.3 7.9 1.5 0 0.8 -0.7 1.5 -1.5 1.5 -1.3 0 -1.5 3.5 -1.5 25.5 l0 25.5 86.8 0 c47.7 0 87.7 0.3 89 0.6 1.2 0.4 2.2 1.3 2.2 2 0 1.2 -15.1 1.4 -97 1.4 -81.9 0 -97 -0.2 -97 -1.4z"/>
  <path d="M14.8 25.3 c3.8 -5.3 16.9 -16.3 19.4 -16.3 0.4 0 0.8 1.1 0.8 2.5 0 1.8 -1.4 3.5 -5.2 6.4 -2.9 2.1 -6.6 5.3 -8.2 7 -2 2.1 -3.9 3.1 -5.9 3.1 l-2.8 0 1.9 -2.7z"/>
  <path d="M67 2.6 c0 -2.3 4 -2.7 25 -2.6 19 0.1 20 0.2 20 2.1 0 1.8 -1 1.9 -22.5 1.9 -18.6 0 -22.5 -0.2 -22.5 -1.4z"/>
  <path d="M135 2.6 c0 -1.5 3 -2.6 7.5 -2.6 4.5 0 7.5 1.1 7.5 2.6 0 1.1 -1.8 1.4 -7.5 1.4 -5.7 0 -7.5 -0.3 -7.5 -1.4z"/>
  <path d="M214 2.6 c0 -0.7 1 -1.6 2.3 -2 2.9 -0.8 75.5 -0.8 78.5 0 1.2 0.4 2.2 1.3 2.2 2 0 1.2 -6.8 1.4 -41.5 1.4 -34.7 0 -41.5 -0.2 -41.5 -1.4z"/>
  <path d="M486 2.6 c0 -0.7 1 -1.6 2.3 -2 2.9 -0.8 215.5 -0.8 218.5 0 1.2 0.4 2.2 1.3 2.2 2 0 1.2 -17.2 1.4 -111.5 1.4 -94.3 0 -111.5 -0.2 -111.5 -1.4z"/>
 </g>
 <g fill="#e9c786">
  <path d="M13 658.8 c-1.2 -1.3 -3.7 -5.5 -5.5 -9.3 -6.8 -14.1 -6.5 -5.8 -6.4 -154.5 0.1 -74 0.4 -138.8 0.8 -144 l0.6 -9.5 6.3 -0.3 6.3 -0.3 -0.1 143.3 c-0.2 105.8 0.1 144.6 0.9 148.3 1.7 7 6.3 16.2 11.1 21.9 2.2 2.6 4 5.2 4 5.7 0 1 -3.2 0.4 -9.2 -1.7 -2.6 -0.9 -3.8 -1 -3.8 -0.2 0 0.6 -0.7 0.5 -1.7 -0.3 -1.5 -1.3 -1.6 -1.2 -1.1 0.9 0.4 1.2 0.4 2.2 0.2 2.2 -0.2 0 -1.3 -1 -2.4 -2.2z"/>
  <path d="M748.2 654.5 c5.4 -7.1 7.9 -11.9 10.5 -20 1.7 -5.7 1.8 -13 1.6 -162.7 l-0.2 -156.8 3.4 0 c3.2 0 3.5 0.3 5.2 5 1 2.8 2.3 5 2.9 5 0.6 0 1.4 2.4 1.8 5.3 0.3 2.8 0.6 71.7 0.6 153.1 0 161.3 0.3 152.6 -5.7 165.2 -2.5 5.3 -5.1 7.4 -4 3.4 0.5 -2.1 -3.4 -7.6 -4.6 -6.4 -0.3 0.3 -1.3 0.7 -2.2 0.8 -1 0.1 -3.4 2.6 -5.4 5.6 -2 2.9 -4.8 6 -6.1 6.9 -1.8 1.2 -1.3 0 2.2 -4.4z"/>
  <path d="M515.7 154.3 c-0.9 -0.8 -0.9 -34.8 0 -35.6 0.3 -0.4 1.7 0 3.1 0.9 1.9 1.2 3 1.4 4.7 0.6 1.3 -0.6 2.6 -0.8 2.9 -0.5 0.3 0.4 0.6 8.2 0.6 17.4 0 14.3 -0.2 16.8 -1.6 17.3 -2.1 0.8 -8.9 0.8 -9.7 -0.1z"/>
  <path d="M248 137.7 c0 -15.5 0.1 -16.5 2 -17 1 -0.3 2.4 0.1 2.9 0.7 1.2 1.4 3.9 1.5 5.9 0.2 0.9 -0.5 1.2 2.8 1.2 14.9 0 11.6 -0.3 15.7 -1.2 16 -0.7 0.2 -3.4 0.6 -6 1 l-4.8 0.6 0 -16.4z"/>
  <path d="M55 70.6 c0 -0.8 1.8 -1.8 4 -2.4 3.8 -0.9 4 -0.9 4 1.4 0 2.1 -0.4 2.4 -4 2.4 -2.7 0 -4 -0.4 -4 -1.4z"/>
 </g>
 <g fill="#ecc86c">
  <path d="M13.1 438 c-0.2 -44.3 -0.7 -83.6 -1.1 -87.5 l-0.7 -7 -0.3 9.5 c-0.3 8.8 -0.4 9.1 -1 4 -0.4 -3.5 -0.7 -4.4 -0.8 -2.3 -0.1 1.7 -0.6 3.4 -1.1 3.7 -1.3 0.9 -2.2 -5.6 -1.5 -10.6 0.5 -3.3 0.4 -4.1 -0.6 -3.2 -0.9 0.9 -1.5 15 -2.3 54.3 -0.6 29.2 -1.5 52.7 -1.9 52.3 -0.5 -0.5 -0.9 -89.5 -0.9 -197.8 0.1 -219.2 -0.5 -201.5 7 -216.9 4.1 -8.3 10.7 -15.5 23.2 -25.2 4.9 -3.9 14 -7.7 23.3 -9.8 1.6 -0.3 59.2 -0.6 128 -0.5 135.6 0 130.9 -0.1 145.2 5.6 11.1 4.4 18.4 9.3 26.9 17.8 13.6 13.7 17.7 22.3 12.3 26 -4.9 3.4 -9.4 1.7 -13.4 -5.1 -5.9 -10.1 -17.7 -20.1 -29.3 -24.8 -13.7 -5.6 -10.6 -5.5 -142.6 -5.5 -88.1 0 -122.9 0.3 -126.3 1.1 -19.2 4.7 -34.2 20.1 -38.7 39.4 -1.2 4.9 -1.5 11.4 -1.3 26.1 l0.3 19.7 3.3 -5.1 c5.4 -8.4 16.4 -17.8 26.7 -22.8 5 -2.4 10.1 -4.4 11.4 -4.4 1.2 0 3.1 -0.5 4.2 -1.1 1.4 -0.7 99.4 -1 326.3 -0.9 358.1 0 328.5 -0.5 343.1 6.4 11.6 5.5 20.8 13.3 27.7 23.5 1.7 2.5 1.8 1.9 1.8 -17.4 0 -21.9 -0.8 -27.1 -5.8 -37.3 -3.6 -7.5 -13.2 -17.1 -20.7 -20.9 -13.2 -6.7 -4.7 -6.3 -135.7 -6.3 -126.8 0 -125.8 0 -138.9 4.9 -12.1 4.6 -25.4 15.2 -31.6 25.2 -4.8 7.8 -9.5 9.4 -14.6 5.1 -7.4 -6.4 12.4 -29.7 34.7 -40.6 17.7 -8.7 5.3 -8 146.4 -8.3 139.4 -0.4 130.3 -0.8 145.2 6.5 10.4 5 23 17.7 28.3 28.2 7.4 15.1 7.1 10.8 7.5 95.5 0.4 90.8 -0.8 245.3 -2 237.5 -0.4 -3 -0.5 -10.8 -0.3 -17.2 0.3 -7.5 0.1 -11.8 -0.5 -11.8 -0.5 0 -1 -1.1 -1 -2.4 0 -1.4 -0.4 -2.8 -1 -3.1 -0.5 -0.3 -0.7 -2 -0.4 -3.8 0.4 -2.8 0.3 -2.9 -0.5 -0.9 -1.4 2.9 -1.8 2.8 -1.9 -0.7 0 -1.6 -0.9 -4.8 -1.9 -7.1 l-1.8 -4.2 -0.3 23.6 c-0.2 13 -0.5 24.4 -0.7 25.4 -0.2 0.9 -0.4 7.2 -0.4 14 -0.1 7.9 -0.5 12.1 -1.1 11.7 -0.7 -0.4 -1 -29.3 -1 -83.5 l0 -82.9 -109.2 -0.3 -109.3 -0.3 -6.3 -2.9 c-7.9 -3.7 -15.2 -11.4 -18.1 -19.1 -1.9 -5.1 -2.1 -7.7 -2.1 -30.5 0 -24.3 0.4 -27.8 3 -23 1.4 2.5 3.5 2.6 5.7 0.1 0.9 -1.1 2 -1.8 2.5 -1.5 0.4 0.3 0.8 10.5 0.8 22.7 0 21.2 0.1 22.4 2.4 27.2 1.3 2.8 3.8 6.4 5.7 7.9 7.6 6.4 0 6 117.7 6.3 l107.3 0.2 -0.3 -40.2 -0.3 -40.2 -2.8 -8 c-8.2 -23.2 -21.6 -36.2 -44.2 -42.8 -4.3 -1.3 -47.3 -1.4 -326 -1.3 l-321 0.2 -6.5 2.3 c-19.1 6.6 -34.8 25 -41.2 48.6 -2 7.4 -2.2 10.8 -2.6 44.1 l-0.4 36.2 46.4 0.6 c25.5 0.4 74 0.6 107.8 0.4 67.8 -0.3 64.1 0 71.3 -6.7 6.4 -5.8 7 -8.5 7.4 -31.6 0.2 -11.5 0.6 -21.9 0.8 -23 0.3 -1.6 1.1 -2 3.8 -1.9 3.9 0.2 4.9 -0.3 6.5 -3.1 0.9 -1.5 1.1 4.5 0.9 26.5 -0.2 27.3 -0.3 28.7 -2.5 33.1 -3.1 6.4 -10.6 13.7 -17.2 16.8 l-5.5 2.6 -109.7 0.3 -109.8 0.2 -0.1 60.3 c-0.1 33.1 -0.5 98.9 -0.8 146.2 l-0.7 86 -0.3 -80.5z"/>
 </g>
</svg>