<?xml version="1.0" encoding="utf-8"?>
<!DOCTYPE svg PUBLIC "-//W3C//DTD SVG 1.0//EN" "http://www.w3.org/TR/2001/REC-SVG-20010904/DTD/svg10.dtd">
<svg version="1.0" xmlns="http://www.w3.org/2000/svg" width="25.4mm" height="25.4mm" viewBox="0 0 25.4 25.4" preserveAspectRatio="xMidYMid meet">
 <g fill="#ECC86C">
  <path d="M9.128 21.775 c-2.064 -0.450 -3.334 -0.952 -3.916 -1.561 -0.688 -0.688 -0.714 -0.794 -0.714 -4.075 0 -2.672 0.079 -3.440 0.397 -3.704 0.317 -0.265 0.476 -0.265 0.794 0 0.317 0.265 0.397 1.005 0.397 3.440 0 2.249 0.106 3.201 0.344 3.387 0.767 0.635 3.545 1.111 6.456 1.111 2.434 0 3.043 0.079 3.149 0.397 0.370 0.952 -0.370 1.191 -3.440 1.164 -1.614 -0.026 -3.175 -0.079 -3.466 -0.159z"/>
  <path d="M17.912 20.690 c-0.503 -0.556 -0.582 -1.270 -0.185 -1.508 0.159 -0.106 0.265 -1.587 0.265 -3.572 l0 -3.387 -2.408 1.058 c-1.773 0.794 -2.646 1.032 -3.254 0.926 -1.455 -0.238 -10.186 -4.445 -10.345 -4.974 -0.291 -0.873 0.106 -1.429 1.323 -2.037 1.614 -0.767 2.249 -0.767 2.249 0.053 0 0.450 -0.238 0.714 -0.794 0.952 -0.423 0.185 -0.794 0.397 -0.794 0.503 0 0.265 8.176 3.995 8.731 3.995 0.688 0 3.545 -1.323 3.334 -1.535 -0.106 -0.106 -1.005 -0.609 -1.958 -1.111 -1.296 -0.661 -1.773 -1.085 -1.773 -1.455 0 -0.900 0.900 -0.714 4.101 0.873 l3.043 1.508 0.079 3.969 c0.026 2.170 0.185 4.075 0.317 4.207 0.397 0.397 0.317 1.085 -0.212 1.561 -0.635 0.582 -1.191 0.556 -1.720 -0.026z"/>
  <path d="M20.267 10.345 c-0.238 -0.397 0.106 -1.058 0.661 -1.217 0.265 -0.106 0.503 -0.265 0.503 -0.370 0 -0.238 -8.123 -3.995 -8.705 -3.995 -0.238 0 -1.508 0.476 -2.858 1.085 -2.487 1.111 -3.254 1.191 -3.254 0.291 0 -0.741 5.265 -3.069 6.456 -2.884 0.476 0.079 2.963 1.111 5.530 2.302 4.683 2.196 5.186 2.566 4.842 3.651 -0.291 0.873 -2.805 1.773 -3.175 1.138z"/>
 </g>
</svg>