<svg version="1.0" xmlns="http://www.w3.org/2000/svg" viewBox="0 0 25.4 25.4" preserveAspectRatio="xMidYMid meet">
 <g fill="none" stroke="#ecc86c" stroke-width="0.7">
  <path d="M4.696 3.572C4.961 3.572 5.358 3.506 5.490 3.770C5.689 4.035 5.556 4.564 5.556 4.895L5.556 7.541M5.490 3.704L6.879 3.572L9.790 3.572L20.505 3.572M19.910 3.704L19.844 11.972M8.996 7.474L8.996 7.541M12.700 7.474L12.700 7.541M16.404 7.474L16.404 7.541M5.556 10.848C5.556 13.361 5.622 15.941 5.622 18.455C5.622 19.315 5.358 20.836 5.821 21.630C6.019 21.894 6.615 21.960 6.945 21.960C7.805 22.027 8.731 21.960 9.591 21.960C9.922 21.960 10.385 22.027 10.716 21.894C10.980 21.828 10.848 21.233 10.848 21.034C10.848 20.439 10.716 19.050 11.113 18.587C11.443 18.190 12.568 18.389 13.031 18.389C13.428 18.389 13.824 18.256 14.155 18.455C14.751 18.852 14.486 20.439 14.486 21.034C14.486 21.299 14.552 21.630 14.288 21.828C14.155 22.027 13.692 22.027 13.428 22.027C12.700 22.027 11.509 22.225 10.848 21.828M8.996 11.179L8.996 11.245M12.700 11.179L12.700 11.245M16.404 11.179L16.404 11.245M20.439 18.322C19.976 18.190 19.579 17.992 19.248 17.595C17.793 15.941 20.373 13.692 21.894 15.147C22.159 15.478 22.357 15.809 22.490 16.206M8.996 14.883L8.996 14.949M12.700 14.883L12.700 14.949M16.404 14.883L16.404 14.949M20.968 20.439C21.762 20.505 22.622 20.307 23.349 20.704C24.143 21.101 24.143 22.291 23.482 22.754C22.423 23.548 20.902 23.746 19.645 23.548C18.587 23.349 16.272 22.159 17.661 20.836C17.859 20.704 18.058 20.638 18.256 20.505"/>
 </g>
</svg>